<svg xmlns="http://www.w3.org/2000/svg" version="1.1" xmlns:xlink="http://www.w3.org/1999/xlink" xmlns:svgjs="http://svgjs.dev/svgjs" width="2000" height="1999" viewBox="0 0 2000 1999"><g transform="matrix(1,0,0,1,-0.431486880466764,-0.4312711370263287)"><svg viewBox="0 0 343 343" data-background-color="#f5f5f7" preserveAspectRatio="xMidYMid meet" height="1999" width="2000" xmlns="http://www.w3.org/2000/svg" xmlns:xlink="http://www.w3.org/1999/xlink"><g id="tight-bounds" transform="matrix(1,0,0,1,0.0740000000000407,0.07400000000001228)"><svg viewBox="0 0 342.85155851775386 342.85155851775386" height="342.85155851775386" width="342.85155851775386"><g><svg></svg></g><g><svg viewBox="0 0 342.85155851775386 342.85155851775386" height="342.85155851775386" width="342.85155851775386"><g><path d="M0 171.426c0-94.676 76.75-171.426 171.426-171.426 94.676 0 171.426 76.75 171.426 171.426 0 94.676-76.75 171.426-171.426 171.426-94.676 0-171.426-76.75-171.426-171.426zM171.426 340.852c93.572 0 169.427-75.855 169.426-169.426 0-93.572-75.855-169.427-169.426-169.427-93.572 0-169.427 75.855-169.427 169.427 0 93.572 75.855 169.427 169.427 169.426z" data-fill-palette-color="tertiary" fill="#4042ce" stroke="transparent"></path><ellipse rx="164.56874808852186" ry="164.56874808852186" cx="171.42577925887693" cy="171.42577925887693" fill="#4042ce" stroke="transparent" stroke-width="0" fill-opacity="1" data-fill-palette-color="tertiary"></ellipse></g><g transform="matrix(1,0,0,1,64.84655864529837,123.62631827726916)"><svg viewBox="0 0 213.1584412271571 95.59892196321553" height="95.59892196321553" width="213.1584412271571"><g><svg viewBox="0 0 315.34257414486893 141.42724052494185" height="95.59892196321553" width="213.1584412271571"><g transform="matrix(1,0,0,1,102.18413291771186,43.78330559171499)"><svg viewBox="0 0 213.15844122715708 53.86062934151187" height="53.86062934151187" width="213.15844122715708"><g id="textblocktransform"><svg viewBox="0 0 213.15844122715708 53.86062934151187" height="53.86062934151187" width="213.15844122715708" id="textblock"><g><svg viewBox="0 0 213.15844122715708 32.79522070317578" height="32.79522070317578" width="213.15844122715708"><g transform="matrix(1,0,0,1,0,0)"><svg width="213.15844122715708" viewBox="1.88 -39.79 318.4615680902984 48.989999999999995" height="32.79522070317578" data-palette-color="#efeded"><g transform="matrix(1,0,0,1,0,0)"><g><svg width="21.10771206019893" viewBox="1.78 -36.86 93.01 37.37" height="8.48095703125" data-palette-color="#efeded" id="scriptelement" x="299.23385603009945" y="-8.48095703125"><path d="M12.91-30.02L1.78-30.02 1.78-36.36 31.64-36.36 31.64-30.02 20.51-30.02 20.51 0 12.91 0 12.91-30.02ZM61.15 0L36.57 0 36.57-36.36 61.08-36.36 61.08-30.02 44.26-30.02 44.26-21.36 59.82-21.36 59.82-15.02 44.26-15.02 44.26-6.34 61.15-6.34 61.15 0ZM94.3-25.91L86.93-25.91Q86.71-28.05 85.1-29.24 83.48-30.43 80.71-30.43L80.71-30.43Q78.83-30.43 77.53-29.91 76.24-29.39 75.55-28.46 74.87-27.54 74.87-26.37L74.87-26.37Q74.84-25.39 75.29-24.66 75.74-23.93 76.54-23.41 77.34-22.89 78.39-22.51 79.43-22.12 80.62-21.86L80.62-21.86 83.89-21.08Q86.27-20.54 88.26-19.66 90.25-18.77 91.7-17.47 93.16-16.18 93.97-14.42 94.77-12.66 94.79-10.39L94.79-10.39Q94.77-7.05 93.1-4.61 91.42-2.17 88.27-0.83 85.12 0.51 80.68 0.51L80.68 0.51Q76.27 0.51 73.02-0.83 69.76-2.18 67.94-4.84 66.12-7.49 66.03-11.42L66.03-11.42 73.47-11.42Q73.59-9.59 74.52-8.37 75.46-7.16 77.03-6.54 78.6-5.93 80.59-5.93L80.59-5.93Q82.54-5.93 83.99-6.5 85.44-7.07 86.23-8.08 87.03-9.09 87.03-10.4L87.03-10.4Q87.03-11.63 86.31-12.46 85.6-13.3 84.22-13.88 82.84-14.47 80.85-14.95L80.85-14.95 76.89-15.94Q72.3-17.06 69.63-19.44 66.97-21.82 66.99-25.85L66.99-25.85Q66.97-29.15 68.75-31.62 70.54-34.09 73.66-35.48 76.79-36.86 80.77-36.86L80.77-36.86Q84.81-36.86 87.84-35.48 90.87-34.09 92.56-31.62 94.24-29.15 94.3-25.91L94.3-25.91Z" opacity="1" transform="matrix(1,0,0,1,0,0)" fill="#efeded" class="undefined-123" data-fill-palette-color="quaternary" id="tk-123"></path></svg></g></g><path d="M20.14 0.71L20.14 0.71Q18.14 0.71 16.72 0.42 15.31 0.12 14.1-0.54 12.89-1.2 11.52-2.25L11.52-2.25 10.67 0 2.78 0 2.78-11.89 10.62-11.89Q11.38-9.84 12.95-9 14.53-8.15 16.82-8.15L16.82-8.15Q18.24-8.15 19.24-8.73 20.24-9.3 20.24-10.25L20.24-10.25Q20.24-11.45 19.21-12.05 18.19-12.65 16.33-13.16L16.33-13.16Q13.96-13.79 12.05-14.5 10.13-15.21 8.62-15.97L8.62-15.97Q5.59-17.48 3.74-20.26 1.88-23.05 1.88-27.66L1.88-27.66Q1.88-31.2 3.42-33.91L3.42-33.91Q4.93-36.6 7.78-38.1 10.62-39.6 14.48-39.6L14.48-39.6Q19.19-39.6 21.92-36.6L21.92-36.6 23.17-38.89 30.18-38.89 30.18-27.25 22.68-27.25Q21.63-29.44 20.36-30.3 19.09-31.15 16.87-31.15L16.87-31.15Q15.19-31.15 14.26-30.55 13.33-29.96 13.33-28.91L13.33-28.91Q13.33-27.73 14.67-27.12L14.67-27.12Q15.99-26.49 18.43-25.95L18.43-25.95Q22.71-24.98 25.81-23.49L25.81-23.49Q28.83-22 30.65-19.27 32.47-16.55 32.47-12.26L32.47-12.26Q32.47-8.62 30.96-5.66L30.96-5.66Q29.42-2.71 26.6-1 23.78 0.71 20.14 0.71ZM56.2 1.49L59.96 1.49 59.96 9.2 43.06 9.2 43.06 1.49 48.02 1.49 49.36-0.76 37.96-18.6 34.86-18.6 34.86-26.15 53.17-26.15 53.17-18.6 50.75-18.6 54.81-11.11 58.52-18.6 55.86-18.6 55.86-26.15 69.5-26.15 69.5-18.6 66.87-18.6 56.2 1.49ZM105.56-16.6L105.56-16.6 105.56-7.06 108.95-7.06 108.95 0 93.84 0 93.84-16.65Q93.84-17.7 93.17-18.51 92.5-19.31 91.55-19.31L91.55-19.31Q89.77-19.31 89.3-17.53L89.3-17.53Q88.81-15.7 88.81-12.4L88.81-12.4 88.81-7.06 88.86-7.06 88.86 0 73.6 0 73.6-7.06 77.14-7.06 77.14-18.6 73.6-18.6 73.6-25.2 88.81-26.66 88.81-23Q90.5-25 92.65-25.83 94.79-26.66 97.5-26.66L97.5-26.66Q105.56-26.66 105.56-16.6ZM122.7 0.44L122.7 0.44Q119.16 0.44 116.57-1.44L116.57-1.44Q114.01-3.32 112.68-6.48 111.35-9.64 111.35-13.45L111.35-13.45Q111.35-16.89 112.71-19.97L112.71-19.97Q114.08-23 116.58-24.83 119.08-26.66 122.5-26.66L122.5-26.66Q124.99-26.66 126.77-25.85 128.56-25.05 130.1-23.46L130.1-23.46 130.1-29.86 126.19-29.86 126.19-36.5 141.84-38.11 141.84-7.35 144.94-7.35 144.94 0 129.9 0 129.9-3.15Q128.7-1.54 126.85-0.57 124.99 0.39 122.7 0.44ZM126.6-6.69L126.6-6.69Q127.75-6.69 128.68-7.24 129.61-7.79 130.1-8.54L130.1-8.54 130.1-17.8Q129.53-18.46 128.59-18.98 127.65-19.51 126.6-19.51L126.6-19.51Q124.7-19.51 123.5-17.96 122.31-16.41 122.31-13.45L122.31-13.45Q122.31-10.45 123.41-8.57 124.5-6.69 126.6-6.69ZM157.66-28.71L157.66-28.71Q154.6-28.71 152.63-30.15 150.65-31.59 150.65-34.3L150.65-34.3Q150.65-37.01 152.63-38.4 154.6-39.79 157.7-39.79L157.7-39.79Q160.81-39.79 162.75-38.43 164.69-37.06 164.69-34.3L164.69-34.3Q164.69-31.59 162.7-30.15 160.71-28.71 157.66-28.71ZM163.49-7.35L166.64-7.35 166.64 0 148.65 0 148.65-7.35 151.8-7.35 151.8-18.6 148.65-18.6 148.65-24.61 163.49-26.15 163.49-7.35ZM204.65-8.59L204.65 0 184.36 0 184.36-8.59 188.27-8.59 188.27-30.25 184.36-30.25 184.36-38.84 203.87-38.84 203.87-30.25 200.77-30.25 200.77-21.41 207.21-30.25 207.21-38.84 222.42-38.84 222.42-30.25 219.05-30.25 211.31-20.85 211.31-20.51Q215.27-20.51 217.51-19.15 219.76-17.8 219.76-14.45L219.76-14.45 219.76-10.5Q219.76-9.74 220.19-9.17 220.61-8.59 221.37-8.59L221.37-8.59 224.15-8.59 224.15 0 215.22 0Q207.02 0 207.02-7.5L207.02-7.5 207.02-11.74Q207.02-12.99 206.21-14.2 205.4-15.41 204.31-15.41L204.31-15.41 200.77-15.41 200.77-8.59 204.65-8.59ZM245.05-8.59L248.93-8.59 248.93 0 228.64 0 228.64-8.59 232.55-8.59 232.55-30.25 228.64-30.25 228.64-38.84 248.93-38.84 248.93-30.25 245.05-30.25 245.05-8.59ZM277.23-8.79L281.23-8.79 281.23 0 259.48 0 259.48-8.79 263.48-8.79 263.48-30.25 260.04-30.25 258.99-23.56 252.13-23.56 252.13-38.84 288.68-38.84 288.68-23.56 281.84-23.56 280.79-30.25 277.23-30.25 277.23-8.79Z" opacity="1" transform="matrix(1,0,0,1,0,0)" fill="#efeded" class="wordmark-text-0" data-fill-palette-color="quaternary" id="text-0"></path></svg></g></svg></g><g transform="matrix(1,0,0,1,0,40.5373852258987)"><svg viewBox="0 0 213.15844122715708 13.323244115613159" height="13.323244115613159" width="213.15844122715708"><g transform="matrix(1,0,0,1,0,0)"><svg width="213.15844122715708" viewBox="2.66 -36.74 772.9300000000001 48.31" height="13.323244115613159" data-palette-color="#efeded"><path d="M17.36 0.61L17.36 0.61Q13.13 0.61 9.81-1.48 6.49-3.56 4.58-7.48 2.66-11.4 2.66-16.89L2.66-16.89Q2.66-22.34 4.6-26.27 6.54-30.2 9.92-32.34 13.31-34.47 17.6-34.47L17.6-34.47Q20.65-34.47 23.01-33.22 25.37-31.96 26.83-30.3L26.83-30.3 24.63-27.76Q23.32-29.2 21.58-30.05 19.85-30.91 17.68-30.91L17.68-30.91Q14.4-30.91 11.96-29.21 9.52-27.51 8.18-24.4 6.84-21.29 6.84-16.99L6.84-16.99Q6.84-12.67 8.14-9.51 9.45-6.35 11.84-4.64 14.23-2.93 17.5-2.93L17.5-2.93Q19.95-2.93 21.88-3.88 23.8-4.83 25.44-6.69L25.44-6.69 27.66-4.27Q25.66-1.9 23.13-0.65 20.61 0.61 17.36 0.61ZM43.26 0.61L43.26 0.61Q40.23 0.61 37.61-0.93 34.98-2.47 33.38-5.38 31.78-8.3 31.78-12.45L31.78-12.45Q31.78-16.63 33.38-19.57 34.98-22.51 37.61-24.06 40.23-25.61 43.26-25.61L43.26-25.61Q46.34-25.61 48.97-24.06 51.61-22.51 53.21-19.57 54.81-16.63 54.81-12.45L54.81-12.45Q54.81-8.3 53.21-5.38 51.61-2.47 48.97-0.93 46.34 0.61 43.26 0.61ZM43.26-2.66L43.26-2.66Q46.6-2.66 48.68-5.36 50.75-8.06 50.75-12.45L50.75-12.45Q50.75-16.87 48.68-19.59 46.6-22.31 43.26-22.31L43.26-22.31Q41.09-22.31 39.4-21.07 37.72-19.82 36.78-17.61 35.84-15.41 35.84-12.45L35.84-12.45Q35.84-8.06 37.91-5.36 39.99-2.66 43.26-2.66ZM65.47 0L61.52 0 61.52-24.98 64.81-24.98 65.18-21.39 65.28-21.39Q67.08-23.17 69.11-24.39 71.14-25.61 73.73-25.61L73.73-25.61Q77.63-25.61 79.46-23.13 81.29-20.65 81.29-15.87L81.29-15.87 81.29 0 77.39 0 77.39-15.36Q77.39-18.92 76.24-20.56 75.09-22.19 72.48-22.19L72.48-22.19Q70.55-22.19 68.99-21.17 67.43-20.14 65.47-18.19L65.47-18.19 65.47 0ZM98.04 0.61L98.04 0.61Q93.38 0.61 90.56-2.8 87.74-6.2 87.74-12.45L87.74-12.45Q87.74-16.5 89.26-19.46 90.79-22.41 93.27-24.01 95.74-25.61 98.6-25.61L98.6-25.61Q100.77-25.61 102.4-24.84 104.02-24.07 105.66-22.71L105.66-22.71 105.51-27 105.51-36.74 109.49-36.74 109.49 0 106.19 0 105.88-2.98 105.73-2.98Q104.24-1.51 102.29-0.45 100.33 0.61 98.04 0.61ZM98.92-2.71L98.92-2.71Q100.7-2.71 102.29-3.58 103.87-4.44 105.51-6.23L105.51-6.23 105.51-19.58Q103.85-21.04 102.34-21.68 100.82-22.31 99.24-22.31L99.24-22.31Q97.16-22.31 95.49-21.07 93.82-19.82 92.81-17.6 91.81-15.38 91.81-12.45L91.81-12.45Q91.81-7.89 93.67-5.3 95.52-2.71 98.92-2.71ZM127.65 0.61L127.65 0.61Q124.62 0.61 122-0.93 119.37-2.47 117.78-5.38 116.18-8.3 116.18-12.45L116.18-12.45Q116.18-16.63 117.78-19.57 119.37-22.51 122-24.06 124.62-25.61 127.65-25.61L127.65-25.61Q130.73-25.61 133.36-24.06 136-22.51 137.6-19.57 139.2-16.63 139.2-12.45L139.2-12.45Q139.2-8.3 137.6-5.38 136-2.47 133.36-0.93 130.73 0.61 127.65 0.61ZM127.65-2.66L127.65-2.66Q131-2.66 133.07-5.36 135.15-8.06 135.15-12.45L135.15-12.45Q135.15-16.87 133.07-19.59 131-22.31 127.65-22.31L127.65-22.31Q125.48-22.31 123.79-21.07 122.11-19.82 121.17-17.61 120.23-15.41 120.23-12.45L120.23-12.45Q120.23-8.06 122.3-5.36 124.38-2.66 127.65-2.66ZM149.87 0L145.91 0 145.91-24.98 149.21-24.98 149.57-21.31 149.67-21.31Q151.33-23.14 153.3-24.38 155.26-25.61 157.51-25.61L157.51-25.61Q160.36-25.61 161.99-24.32 163.61-23.02 164.34-20.8L164.34-20.8Q166.32-22.92 168.37-24.27 170.42-25.61 172.64-25.61L172.64-25.61Q176.48-25.61 178.36-23.13 180.24-20.65 180.24-15.87L180.24-15.87 180.24 0 176.31 0 176.31-15.36Q176.31-18.92 175.13-20.56 173.96-22.19 171.52-22.19L171.52-22.19Q168.64-22.19 165.08-18.19L165.08-18.19 165.08 0 161.1 0 161.1-15.36Q161.1-18.92 159.94-20.56 158.78-22.19 156.31-22.19L156.31-22.19Q153.43-22.19 149.87-18.19L149.87-18.19 149.87 0ZM192.42 0L188.46 0 188.46-24.98 192.42-24.98 192.42 0ZM190.51-30.25L190.51-30.25Q189.32-30.25 188.58-30.99 187.85-31.74 187.85-32.98L187.85-32.98Q187.85-34.13 188.58-34.86 189.32-35.6 190.51-35.6L190.51-35.6Q191.71-35.6 192.44-34.86 193.17-34.13 193.17-32.98L193.17-32.98Q193.17-31.74 192.44-30.99 191.71-30.25 190.51-30.25ZM204.99 0L201.03 0 201.03-24.98 204.33-24.98 204.69-21.39 204.79-21.39Q206.6-23.17 208.63-24.39 210.65-25.61 213.24-25.61L213.24-25.61Q217.15-25.61 218.98-23.13 220.81-20.65 220.81-15.87L220.81-15.87 220.81 0 216.9 0 216.9-15.36Q216.9-18.92 215.75-20.56 214.61-22.19 211.99-22.19L211.99-22.19Q210.07-22.19 208.5-21.17 206.94-20.14 204.99-18.19L204.99-18.19 204.99 0ZM233.01 0L229.06 0 229.06-24.98 233.01-24.98 233.01 0ZM231.11-30.25L231.11-30.25Q229.91-30.25 229.18-30.99 228.45-31.74 228.45-32.98L228.45-32.98Q228.45-34.13 229.18-34.86 229.91-35.6 231.11-35.6L231.11-35.6Q232.3-35.6 233.04-34.86 233.77-34.13 233.77-32.98L233.77-32.98Q233.77-31.74 233.04-30.99 232.3-30.25 231.11-30.25ZM248.93 0.61L248.93 0.61Q245 0.61 243.15-1.86 241.31-4.32 241.31-9.11L241.31-9.11 241.31-24.98 245.22-24.98 245.22-9.62Q245.22-6.08 246.38-4.46 247.54-2.83 250.12-2.83L250.12-2.83Q252.08-2.83 253.63-3.85 255.18-4.86 257.03-7.15L257.03-7.15 257.03-24.98 260.94-24.98 260.94 0 257.69 0 257.35-3.96 257.18-3.96Q255.45-1.9 253.47-0.65 251.49 0.61 248.93 0.61ZM273.51 0L269.56 0 269.56-24.98 272.85-24.98 273.22-21.31 273.31-21.31Q274.98-23.14 276.94-24.38 278.91-25.61 281.15-25.61L281.15-25.61Q284.01-25.61 285.63-24.32 287.26-23.02 287.99-20.8L287.99-20.8Q289.97-22.92 292.02-24.27 294.07-25.61 296.29-25.61L296.29-25.61Q300.12-25.61 302-23.13 303.88-20.65 303.88-15.87L303.88-15.87 303.88 0 299.95 0 299.95-15.36Q299.95-18.92 298.78-20.56 297.61-22.19 295.17-22.19L295.17-22.19Q292.28-22.19 288.72-18.19L288.72-18.19 288.72 0 284.74 0 284.74-15.36Q284.74-18.92 283.58-20.56 282.42-22.19 279.96-22.19L279.96-22.19Q277.07-22.19 273.51-18.19L273.51-18.19 273.51 0ZM332.22 0L328.63 0 328.63-33.84 333.51-33.84 340.11-15.5Q340.74-13.72 341.34-11.95 341.94-10.18 342.55-8.4L342.55-8.4 342.74-8.4Q343.38-10.18 343.94-11.95 344.5-13.72 345.11-15.5L345.11-15.5 351.61-33.84 356.56-33.84 356.56 0 352.8 0 352.8-19.17Q352.8-21.36 352.97-24.24 353.14-27.12 353.31-29.37L353.31-29.37 353.1-29.37 350.43-21.39 343.94-3.44 341.16-3.44 334.66-21.39 331.98-29.37 331.76-29.37Q331.93-27.12 332.07-24.24 332.22-21.36 332.22-19.17L332.22-19.17 332.22 0ZM371.28 0.61L371.28 0.61Q368.16 0.61 366.06-1.21 363.96-3.03 363.96-6.42L363.96-6.42Q363.96-10.52 367.68-12.72 371.4-14.92 379.44-15.82L379.44-15.82Q379.44-17.48 378.98-18.97 378.53-20.46 377.4-21.41 376.26-22.36 374.16-22.36L374.16-22.36Q371.94-22.36 370-21.51 368.06-20.65 366.59-19.73L366.59-19.73 365.06-22.36Q366.72-23.51 369.24-24.56 371.77-25.61 374.8-25.61L374.8-25.61Q379.36-25.61 381.38-22.8 383.39-20 383.39-15.41L383.39-15.41 383.39 0 380.09 0 379.78-3.03 379.63-3.03Q377.82-1.54 375.71-0.46 373.6 0.61 371.28 0.61ZM372.36-2.56L372.36-2.56Q374.24-2.56 375.88-3.44 377.53-4.32 379.44-5.96L379.44-5.96 379.44-13.18Q375.11-12.65 372.57-11.77 370.04-10.89 368.94-9.64 367.84-8.4 367.84-6.74L367.84-6.74Q367.84-4.52 369.16-3.54 370.48-2.56 372.36-2.56ZM395.33 0L391.37 0 391.37-24.98 394.67-24.98 395.03-21.39 395.13-21.39Q396.94-23.17 398.96-24.39 400.99-25.61 403.58-25.61L403.58-25.61Q407.48-25.61 409.32-23.13 411.15-20.65 411.15-15.87L411.15-15.87 411.15 0 407.24 0 407.24-15.36Q407.24-18.92 406.09-20.56 404.95-22.19 402.33-22.19L402.33-22.19Q400.4-22.19 398.84-21.17 397.28-20.14 395.33-18.19L395.33-18.19 395.33 0ZM425.16 0.61L425.16 0.61Q422.03 0.61 419.93-1.21 417.83-3.03 417.83-6.42L417.83-6.42Q417.83-10.52 421.56-12.72 425.28-14.92 433.31-15.82L433.31-15.82Q433.31-17.48 432.86-18.97 432.41-20.46 431.27-21.41 430.14-22.36 428.04-22.36L428.04-22.36Q425.82-22.36 423.88-21.51 421.94-20.65 420.47-19.73L420.47-19.73 418.93-22.36Q420.59-23.51 423.12-24.56 425.65-25.61 428.67-25.61L428.67-25.61Q433.24-25.61 435.25-22.8 437.27-20 437.27-15.41L437.27-15.41 437.27 0 433.97 0 433.65-3.03 433.51-3.03Q431.7-1.54 429.59-0.46 427.48 0.61 425.16 0.61ZM426.23-2.56L426.23-2.56Q428.11-2.56 429.76-3.44 431.41-4.32 433.31-5.96L433.31-5.96 433.31-13.18Q428.99-12.65 426.45-11.77 423.91-10.89 422.81-9.64 421.72-8.4 421.72-6.74L421.72-6.74Q421.72-4.52 423.03-3.54 424.35-2.56 426.23-2.56ZM453.7 11.57L453.7 11.57Q449.06 11.57 446.2 9.83 443.34 8.08 443.34 4.83L443.34 4.83Q443.34 3.2 444.32 1.73 445.3 0.27 446.98-0.85L446.98-0.85 446.98-1.07Q446.08-1.64 445.43-2.65 444.78-3.66 444.78-5.15L444.78-5.15Q444.78-6.74 445.69-7.93 446.59-9.13 447.52-9.79L447.52-9.79 447.52-9.99Q446.27-10.96 445.3-12.71 444.32-14.45 444.32-16.67L444.32-16.67Q444.32-19.41 445.59-21.41 446.86-23.41 448.97-24.51 451.08-25.61 453.6-25.61L453.6-25.61Q454.65-25.61 455.54-25.43 456.43-25.24 457.09-24.98L457.09-24.98 465.8-24.98 465.8-21.95 460.56-21.95Q461.48-21.04 462.09-19.65 462.7-18.26 462.7-16.63L462.7-16.63Q462.7-13.96 461.5-12.01 460.29-10.06 458.22-9 456.16-7.93 453.6-7.93L453.6-7.93Q452.67-7.93 451.68-8.15 450.69-8.37 449.84-8.79L449.84-8.79Q449.15-8.23 448.67-7.52 448.18-6.81 448.18-5.76L448.18-5.76Q448.18-4.52 449.12-3.75 450.06-2.98 452.62-2.98L452.62-2.98 457.55-2.98Q461.9-2.98 464.06-1.54 466.22-0.1 466.22 2.98L466.22 2.98Q466.22 5.27 464.68 7.23 463.14 9.18 460.32 10.38 457.5 11.57 453.7 11.57ZM453.6-10.6L453.6-10.6Q455.84-10.6 457.48-12.24 459.12-13.89 459.12-16.67L459.12-16.67Q459.12-19.51 457.49-21.11 455.87-22.71 453.6-22.71L453.6-22.71Q451.3-22.71 449.72-21.11 448.13-19.51 448.13-16.67L448.13-16.67Q448.13-13.89 449.75-12.24 451.38-10.6 453.6-10.6ZM454.21 8.79L454.21 8.79Q456.67 8.79 458.48 8.03 460.29 7.28 461.29 6.08 462.29 4.88 462.29 3.54L462.29 3.54Q462.29 1.73 461.01 1.04 459.73 0.34 457.19 0.34L457.19 0.34 452.72 0.34Q452.04 0.34 451.18 0.26 450.33 0.17 449.47-0.05L449.47-0.05Q448.08 0.9 447.46 2.05 446.84 3.2 446.84 4.32L446.84 4.32Q446.84 6.37 448.79 7.58 450.74 8.79 454.21 8.79ZM481.13 0.61L481.13 0.61Q477.84 0.61 475.14-0.95 472.44-2.51 470.84-5.44 469.24-8.37 469.24-12.45L469.24-12.45Q469.24-16.53 470.84-19.48 472.44-22.44 475.01-24.02 477.57-25.61 480.43-25.61L480.43-25.61Q485.14-25.61 487.73-22.46 490.31-19.31 490.31-13.89L490.31-13.89Q490.31-12.52 490.17-11.57L490.17-11.57 473.15-11.57Q473.35-7.5 475.64-5 477.94-2.51 481.6-2.51L481.6-2.51Q483.48-2.51 485.04-3.02 486.6-3.52 487.95-4.42L487.95-4.42 489.34-1.95Q487.7-0.83 485.72-0.11 483.75 0.61 481.13 0.61ZM473.1-14.43L473.1-14.43 486.82-14.43Q486.82-18.36 485.16-20.41 483.5-22.46 480.48-22.46L480.48-22.46Q477.77-22.46 475.63-20.36 473.49-18.26 473.1-14.43ZM500.49 0L496.54 0 496.54-24.98 499.83-24.98 500.2-21.31 500.3-21.31Q501.96-23.14 503.92-24.38 505.89-25.61 508.13-25.61L508.13-25.61Q510.99-25.61 512.61-24.32 514.24-23.02 514.97-20.8L514.97-20.8Q516.95-22.92 519-24.27 521.05-25.61 523.27-25.61L523.27-25.61Q527.1-25.61 528.98-23.13 530.86-20.65 530.86-15.87L530.86-15.87 530.86 0 526.93 0 526.93-15.36Q526.93-18.92 525.76-20.56 524.59-22.19 522.15-22.19L522.15-22.19Q519.27-22.19 515.7-18.19L515.7-18.19 515.7 0 511.72 0 511.72-15.36Q511.72-18.92 510.56-20.56 509.4-22.19 506.94-22.19L506.94-22.19Q504.06-22.19 500.49-18.19L500.49-18.19 500.49 0ZM549.12 0.61L549.12 0.61Q545.83 0.61 543.13-0.95 540.43-2.51 538.83-5.44 537.23-8.37 537.23-12.45L537.23-12.45Q537.23-16.53 538.83-19.48 540.43-22.44 542.99-24.02 545.56-25.61 548.41-25.61L548.41-25.61Q553.13-25.61 555.71-22.46 558.3-19.31 558.3-13.89L558.3-13.89Q558.3-12.52 558.16-11.57L558.16-11.57 541.14-11.57Q541.33-7.5 543.63-5 545.92-2.51 549.59-2.51L549.59-2.51Q551.47-2.51 553.03-3.02 554.59-3.52 555.93-4.42L555.93-4.42 557.33-1.95Q555.69-0.83 553.71-0.11 551.73 0.61 549.12 0.61ZM541.09-14.43L541.09-14.43 554.81-14.43Q554.81-18.36 553.15-20.41 551.49-22.46 548.46-22.46L548.46-22.46Q545.75-22.46 543.62-20.36 541.48-18.26 541.09-14.43ZM568.48 0L564.53 0 564.53-24.98 567.82-24.98 568.19-21.39 568.28-21.39Q570.09-23.17 572.12-24.39 574.14-25.61 576.73-25.61L576.73-25.61Q580.64-25.61 582.47-23.13 584.3-20.65 584.3-15.87L584.3-15.87 584.3 0 580.39 0 580.39-15.36Q580.39-18.92 579.25-20.56 578.1-22.19 575.49-22.19L575.49-22.19Q573.56-22.19 572-21.17 570.43-20.14 568.48-18.19L568.48-18.19 568.48 0ZM600.26 0.61L600.26 0.61Q596.33 0.61 594.8-1.66 593.26-3.93 593.26-7.62L593.26-7.62 593.26-21.73 589.55-21.73 589.55-24.78 593.48-24.98 593.94-33.08 597.24-33.08 597.24-24.98 604.1-24.98 604.1-21.73 597.24-21.73 597.24-7.52Q597.24-5.2 598.09-3.91 598.95-2.61 601.14-2.61L601.14-2.61Q601.8-2.61 602.54-2.75 603.27-2.88 604.02-3.22L604.02-3.22 604.9-0.44Q603.9 0 602.71 0.31 601.51 0.61 600.26 0.61ZM635.56 0.61L635.56 0.61Q631.92 0.61 628.95-0.74 625.97-2.1 623.8-4.42L623.8-4.42 626.07-7.1Q627.87-5.13 630.39-4.03 632.9-2.93 635.61-2.93L635.61-2.93Q639.05-2.93 640.98-4.49 642.91-6.05 642.91-8.59L642.91-8.59Q642.91-10.4 642.15-11.49 641.4-12.57 640.1-13.29 638.81-14.01 637.2-14.72L637.2-14.72 632.32-16.89Q630.75-17.58 629.17-18.65 627.58-19.73 626.52-21.41 625.46-23.1 625.46-25.56L625.46-25.56Q625.46-28.15 626.82-30.15 628.19-32.15 630.57-33.31 632.95-34.47 635.95-34.47L635.95-34.47Q639.05-34.47 641.59-33.3 644.13-32.13 645.87-30.4L645.87-30.4 643.64-27.71Q642.11-29.17 640.15-30.04 638.2-30.91 635.95-30.91L635.95-30.91Q633.07-30.91 631.3-29.52 629.53-28.13 629.53-25.81L629.53-25.81Q629.53-24.15 630.39-23.07 631.24-22 632.54-21.3 633.83-20.61 635.15-20.04L635.15-20.04 639.98-17.97Q641.96-17.14 643.55-15.99 645.13-14.84 646.06-13.15 646.99-11.45 646.99-8.91L646.99-8.91Q646.99-6.25 645.6-4.09 644.21-1.93 641.65-0.66 639.1 0.61 635.56 0.61ZM653.53 10.86L653.53 10.86Q652.7 10.86 651.97 10.71 651.23 10.55 650.65 10.3L650.65 10.3 651.48 7.2Q651.94 7.35 652.43 7.46 652.92 7.57 653.33 7.57L653.33 7.57Q655.51 7.57 656.9 5.98 658.29 4.39 659.1 2L659.1 2 659.73 0.1 649.62-24.98 653.7-24.98 658.95-10.86Q659.53-9.23 660.17-7.39 660.8-5.54 661.41-3.81L661.41-3.81 661.63-3.81Q662.17-5.54 662.71-7.37 663.25-9.2 663.73-10.86L663.73-10.86 668.37-24.98 672.25-24.98 662.76 2.2Q661.9 4.61 660.69 6.58 659.49 8.54 657.74 9.7 655.99 10.86 653.53 10.86ZM683.63 0.61L683.63 0.61Q680.85 0.61 678.45-0.33 676.06-1.27 674.35-2.93L674.35-2.93 676.21-5.25Q677.79-3.93 679.59-3.2 681.38-2.47 683.78-2.47L683.78-2.47Q686.29-2.47 687.56-3.67 688.83-4.88 688.83-6.54L688.83-6.54Q688.83-7.86 688-8.73 687.17-9.59 685.86-10.21 684.56-10.82 683.12-11.33L683.12-11.33Q681.26-12.01 679.58-12.92 677.89-13.82 676.82-15.19 675.74-16.55 675.74-18.6L675.74-18.6Q675.74-21.53 677.96-23.57 680.19-25.61 684.24-25.61L684.24-25.61Q686.56-25.61 688.52-24.82 690.49-24.02 691.93-22.83L691.93-22.83 690.12-20.51Q688.8-21.46 687.4-21.98 686-22.51 684.29-22.51L684.29-22.51Q681.82-22.51 680.69-21.37 679.55-20.24 679.55-18.8L679.55-18.8Q679.55-17.02 681.07-16.11 682.58-15.21 684.85-14.36L684.85-14.36Q686.83-13.67 688.61-12.78 690.39-11.89 691.51-10.47 692.64-9.06 692.64-6.74L692.64-6.74Q692.64-3.71 690.32-1.55 688 0.61 683.63 0.61ZM706.33 0.61L706.33 0.61Q702.4 0.61 700.86-1.66 699.32-3.93 699.32-7.62L699.32-7.62 699.32-21.73 695.61-21.73 695.61-24.78 699.54-24.98 700.01-33.08 703.3-33.08 703.3-24.98 710.16-24.98 710.16-21.73 703.3-21.73 703.3-7.52Q703.3-5.2 704.16-3.91 705.01-2.61 707.21-2.61L707.21-2.61Q707.87-2.61 708.6-2.75 709.33-2.88 710.09-3.22L710.09-3.22 710.97-0.44Q709.97 0 708.77 0.31 707.58 0.61 706.33 0.61ZM725.86 0.61L725.86 0.61Q722.56 0.61 719.87-0.95 717.17-2.51 715.57-5.44 713.97-8.37 713.97-12.45L713.97-12.45Q713.97-16.53 715.57-19.48 717.17-22.44 719.73-24.02 722.3-25.61 725.15-25.61L725.15-25.61Q729.86-25.61 732.45-22.46 735.04-19.31 735.04-13.89L735.04-13.89Q735.04-12.52 734.89-11.57L734.89-11.57 717.88-11.57Q718.07-7.5 720.37-5 722.66-2.51 726.32-2.51L726.32-2.51Q728.2-2.51 729.77-3.02 731.33-3.52 732.67-4.42L732.67-4.42 734.06-1.95Q732.43-0.83 730.45-0.11 728.47 0.61 725.86 0.61ZM717.83-14.43L717.83-14.43 731.55-14.43Q731.55-18.36 729.89-20.41 728.23-22.46 725.2-22.46L725.2-22.46Q722.49-22.46 720.35-20.36 718.22-18.26 717.83-14.43ZM745.22 0L741.26 0 741.26-24.98 744.56-24.98 744.93-21.31 745.02-21.31Q746.68-23.14 748.65-24.38 750.61-25.61 752.86-25.61L752.86-25.61Q755.72-25.61 757.34-24.32 758.96-23.02 759.7-20.8L759.7-20.8Q761.67-22.92 763.72-24.27 765.77-25.61 768-25.61L768-25.61Q771.83-25.61 773.71-23.13 775.59-20.65 775.59-15.87L775.59-15.87 775.59 0 771.66 0 771.66-15.36Q771.66-18.92 770.49-20.56 769.31-22.19 766.87-22.19L766.87-22.19Q763.99-22.19 760.43-18.19L760.43-18.19 760.43 0 756.45 0 756.45-15.36Q756.45-18.92 755.29-20.56 754.13-22.19 751.66-22.19L751.66-22.19Q748.78-22.19 745.22-18.19L745.22-18.19 745.22 0Z" opacity="1" transform="matrix(1,0,0,1,0,0)" fill="#efeded" class="slogan-text-1" data-fill-palette-color="quaternary" id="text-1"></path></svg></g></svg></g></svg></g></svg></g><g><svg viewBox="0 0 94.44196839498893 141.42724052494185" height="141.42724052494185" width="94.44196839498893"><g><svg xmlns="http://www.w3.org/2000/svg" xmlns:xlink="http://www.w3.org/1999/xlink" version="1.1" x="0" y="0" viewBox="20 5 60.099999999999994 90" enable-background="new 0 0 100 100" xml:space="preserve" height="141.42724052494185" width="94.44196839498893" class="icon-icon-0" data-fill-palette-color="quaternary" id="icon-0"><g fill="#efeded" data-fill-palette-color="quaternary"><path fill="#efeded" d="M72.5 19.1L77.3 16.1 49.8 5.2 44.7 8 38 5 20 12.2 34.1 18.5 27.8 21.5 45.5 29.3 51 26.3 64 32.3 80.1 22.3zM56.4 18.3L56.3 24.9 43.4 18.4 43.6 12.2zM63.1 20.9L58 24.7 58.1 18.4V18.2L63.2 14.8V20.9zM56.9 16.8L44.3 10.8C44.1 10.7 43.9 10.7 43.8 10.7L50.2 7 63.1 12.9z" data-fill-palette-color="quaternary"></path><path fill="#efeded" d="M45.5 30.9C45.3 30.9 45.1 30.9 44.9 30.8L27.8 23.3V82.9L33.2 85.6V82.4L35.4 83.4V86.7L35.9 87V83.6L38.1 84.6V88.1L45.8 92zM35.4 80.8L30.8 78.3V75.3L35.4 77.8zM35.4 71.7L30.8 69.2V66.2L35.4 68.7zM35.4 62.6L30.9 60V57L35.5 59.5V62.6zM35.4 53.5L30.8 51V48L35.4 50.5zM30.8 41.9V38.9L35.4 41.4V44.4zM35.5 35.3L30.7 32.9V30L35.5 32.4zM41.5 84.1L36.9 81.6V78.6L41.5 81.1zM41.5 75L36.9 72.5V69.5L41.5 72zM41.5 65.9L36.9 63.4V60.4L41.5 62.9zM41.5 56.7L36.9 54.2V51.2L41.5 53.7zM37 45.1V42.1L41.6 44.6V47.6zM36.9 35.9V33L41.6 35.3V38.2z" data-fill-palette-color="quaternary"></path><path fill="#efeded" d="M20 14V70.2L26.2 74.1V21.5C26.2 20.9 26.5 20.3 27.1 20L30.3 18.5zM24.6 64.8L22.3 63.7V60.7L24.6 61.7zM24.6 56.8L22.3 55.7V52.7L24.6 53.7zM24.6 48.9L22.3 47.8V44.8L24.6 45.8zM24.6 40.9L22.3 39.8V36.8L24.6 37.8zM24.6 32.9L22.3 31.8V28.8L24.6 29.8zM24.6 25L22.3 23.9V20.9L24.6 21.9z" data-fill-palette-color="quaternary"></path><path fill="#efeded" d="M65 92.9L79.2 82.5V24.7L65 33.5zM67.6 37.9L77 31.8V34.8L67.6 41zM67.6 46.8L77 40.7V43.7L67.6 49.9zM67.6 55.8L77 49.7V52.7L67.6 58.9zM67.6 64.7L77 58.6V61.6L67.6 67.8zM67.6 73.6L77 67.5V70.5L67.6 76.7zM67.6 82.5L77 76.4V79.4L67.6 85.6z" data-fill-palette-color="quaternary"></path><polygon fill="#efeded" points="77.3,17.9 75.8,18.8 77.3,19.4  " data-fill-palette-color="quaternary"></polygon><path fill="#efeded" d="M52.7 28.9V89.8L63.4 95V33.8C63.3 33.8 63.3 33.8 63.2 33.7zM54.9 36L57.2 37V40L54.9 39zM57.2 85L54.9 83.9V80.9L57.2 81.9zM57.2 75.9L54.9 74.8V71.8L57.2 72.8zM57.2 66.8L54.9 65.7V62.7L57.2 63.7zM57.2 57.7L54.9 56.6V53.6L57.2 54.6zM57.2 48.6L54.9 47.5V44.5L57.2 45.5zM58.6 37.7L60.9 38.7V41.7L58.6 40.6zM60.9 86.7L58.6 85.6V82.6L60.9 83.6zM60.9 77.6L58.6 76.5V73.5L60.9 74.5zM60.9 68.5L58.6 67.4V64.4L60.9 65.4zM60.9 59.4L58.6 58.3V55.3L60.9 56.3zM60.9 50.3L58.6 49.2V46.2L60.9 47.2z" data-fill-palette-color="quaternary"></path><polygon fill="#efeded" points="47.1,30.2 47.2,91.1 51.1,89 51.1,28.1 51,28.1  " data-fill-palette-color="quaternary"></polygon></g></svg></g></svg></g></svg></g></svg></g></svg></g><defs></defs></svg><rect width="342.85155851775386" height="342.85155851775386" fill="none" stroke="none" visibility="hidden"></rect></g></svg></g></svg>