<?xml version="1.0" encoding="utf-8"?>
<svg version="1.1" x="0px" y="0px" viewBox="0 0 500 500" style="enable-background:new 0 0 500 500;" xmlns="http://www.w3.org/2000/svg">
  <defs/>
  <g id="OBJECTS">
    <g>
      <g>
        <g>
          <polygon style="fill:#D38B2D;" points="469.518,320.406 469.518,299.26 250.456,426.281 30.482,299.158 30.482,320.303 &#10;&#9;&#9;&#9;&#9;&#9;250.456,447.426 &#9;&#9;&#9;&#9;"/>
        </g>
        <g>
          <polygon style="fill:#676B6B;" points="469.518,299.26 469.518,303.521 250.456,430.541 30.482,303.419 30.482,299.158 &#10;&#9;&#9;&#9;&#9;&#9;35.115,296.488 250.456,420.931 464.904,296.591 &#9;&#9;&#9;&#9;"/>
        </g>
        <g>
          <path style="fill:#8FAD12;" d="M453.359,289.89c8.923,5.152,8.976,13.507,0.105,18.662L266.836,417.009&#10;&#9;&#9;&#9;&#9;&#9;c-8.871,5.155-23.296,5.152-32.219,0L46.763,308.551c-8.923-5.152-8.976-13.507-0.105-18.662l186.628-108.456&#10;&#9;&#9;&#9;&#9;&#9;c8.87-5.155,23.296-5.152,32.219,0L453.359,289.89z"/>
        </g>
        <path style="fill:#818787;" d="M469.518,299.26c-0.065,0.023-54.729,31.841-109.454,63.577&#10;&#9;&#9;&#9;&#9;c-54.773,31.763-109.608,63.443-109.608,63.443L30.482,299.158l4.633-2.67l0.456-0.26l1.005-0.577l0.028-0.019l0.995-0.577&#10;&#9;&#9;&#9;&#9;l21.489-12.391l1.033-0.595l4.614-2.679l185.321,107.736l185.33-107.615l4.735,2.735l1.033,0.595l22.299,12.903l0.307,0.177&#10;&#9;&#9;&#9;&#9;l0.726,0.428l0.307,0.177l0.112,0.065L469.518,299.26z"/>
        <line style="fill:none;" x1="362.88" y1="321.615" x2="340.163" y2="334.806"/>
        <path style="fill:#FFFFFF;" d="M250.059,393.742l191.09-110.901l-1.03-0.593l-190.06,110.297L60.125,282.07l-1.041,0.593&#10;&#9;&#9;&#9;&#9;l190.715,110.932L250.059,393.742z"/>
        <path style="fill:#FFFFFF;" d="M464.485,296.349l-0.726-0.428l-213.62,123.988L36.604,295.632l-0.028,0.019l-1.005,0.577&#10;&#9;&#9;&#9;&#9;l214.308,124.732l0.26,0.149l214.652-124.583L464.485,296.349z"/>
        <g>
          <g>
            <polygon style="fill:#FFFFFF;" points="366.419,331.396 356.917,336.917 354.818,335.705 364.319,330.184 &#9;&#9;&#9;&#9;&#9;"/>
            <polygon style="fill:#FFFFFF;" points="370.175,333.566 360.674,339.088 358.575,337.876 368.076,332.355 &#9;&#9;&#9;&#9;&#9;"/>
            <polygon style="fill:#FFFFFF;" points="373.836,335.833 364.335,341.355 362.236,340.143 371.737,334.621 &#9;&#9;&#9;&#9;&#9;"/>
            <polygon style="fill:#FFFFFF;" points="377.497,337.972 367.996,343.493 365.897,342.282 375.398,336.76 &#9;&#9;&#9;&#9;&#9;"/>
            <polygon style="fill:#FFFFFF;" points="381.46,340.332 371.958,345.854 369.859,344.642 379.361,339.121 &#9;&#9;&#9;&#9;&#9;"/>
          </g>
        </g>
        <g>
          <polygon style="fill:#FFFFFF;" points="386.113,328.747 380.059,332.323 377.982,331.124 384.036,327.548 &#9;&#9;&#9;&#9;"/>
          <polygon style="fill:#FFFFFF;" points="398.264,321.697 392.21,325.272 390.133,324.073 396.187,320.497 &#9;&#9;&#9;&#9;"/>
          <polygon style="fill:#FFFFFF;" points="410.415,314.646 404.36,318.221 402.283,317.022 408.338,313.446 &#9;&#9;&#9;&#9;"/>
          <polygon style="fill:#FFFFFF;" points="422.565,307.595 416.511,311.17 414.434,309.971 420.488,306.395 &#9;&#9;&#9;&#9;"/>
          <polygon style="fill:#FFFFFF;" points="434.716,300.543 428.662,304.119 426.585,302.92 432.639,299.344 &#9;&#9;&#9;&#9;"/>
          <polygon style="fill:#FFFFFF;" points="446.867,293.492 440.812,297.068 438.735,295.869 444.79,292.293 &#9;&#9;&#9;&#9;"/>
        </g>
        <g>
          <g>
            <polygon style="fill:#FFFFFF;" points="310.387,374.276 304.332,377.851 302.255,376.652 308.31,373.076 &#9;&#9;&#9;&#9;&#9;"/>
            <polygon style="fill:#FFFFFF;" points="322.537,367.224 316.483,370.8 314.406,369.601 320.46,366.025 &#9;&#9;&#9;&#9;&#9;"/>
            <polygon style="fill:#FFFFFF;" points="334.688,360.173 328.634,363.749 326.557,362.55 332.611,358.974 &#9;&#9;&#9;&#9;&#9;"/>
            <polygon style="fill:#FFFFFF;" points="346.839,353.122 340.784,356.698 338.707,355.499 344.762,351.923 &#9;&#9;&#9;&#9;&#9;"/>
            <polygon style="fill:#FFFFFF;" points="358.989,346.072 352.935,349.647 350.858,348.448 356.912,344.872 &#9;&#9;&#9;&#9;&#9;"/>
          </g>
          <g>
            <polygon style="fill:#FFFFFF;" points="261.828,402.434 255.772,406.007 253.696,404.807 259.752,401.234 &#9;&#9;&#9;&#9;&#9;"/>
            <polygon style="fill:#FFFFFF;" points="273.975,395.375 267.92,398.951 265.843,397.751 271.898,394.176 &#9;&#9;&#9;&#9;&#9;"/>
            <polygon style="fill:#FFFFFF;" points="286.125,388.324 280.071,391.9 277.994,390.7 284.048,387.125 &#9;&#9;&#9;&#9;&#9;"/>
            <polygon style="fill:#FFFFFF;" points="298.276,381.273 292.221,384.849 290.145,383.649 296.199,380.074 &#9;&#9;&#9;&#9;&#9;"/>
          </g>
        </g>
        <g>
          <g>
            <polygon style="fill:#FFFFFF;" points="191.217,374.276 197.271,377.851 199.348,376.652 193.294,373.076 &#9;&#9;&#9;&#9;&#9;"/>
            <polygon style="fill:#FFFFFF;" points="179.066,367.224 185.12,370.8 187.197,369.601 181.143,366.025 &#9;&#9;&#9;&#9;&#9;"/>
            <polygon style="fill:#FFFFFF;" points="166.915,360.173 172.97,363.749 175.047,362.55 168.992,358.974 &#9;&#9;&#9;&#9;&#9;"/>
            <polygon style="fill:#FFFFFF;" points="154.765,353.122 160.819,356.698 162.896,355.499 156.842,351.923 &#9;&#9;&#9;&#9;&#9;"/>
            <polygon style="fill:#FFFFFF;" points="142.614,346.072 148.669,349.647 150.746,348.448 144.691,344.872 &#9;&#9;&#9;&#9;&#9;"/>
          </g>
          <g>
            <polygon style="fill:#FFFFFF;" points="239.775,402.434 245.831,406.007 247.908,404.807 241.852,401.234 &#9;&#9;&#9;&#9;&#9;"/>
            <polygon style="fill:#FFFFFF;" points="227.629,395.375 233.683,398.951 235.76,397.751 229.706,394.176 &#9;&#9;&#9;&#9;&#9;"/>
            <polygon style="fill:#FFFFFF;" points="215.478,388.324 221.533,391.9 223.609,390.7 217.555,387.125 &#9;&#9;&#9;&#9;&#9;"/>
            <polygon style="fill:#FFFFFF;" points="203.327,381.273 209.382,384.849 211.459,383.649 205.404,380.074 &#9;&#9;&#9;&#9;&#9;"/>
          </g>
        </g>
        <g>
          <g>
            <polygon style="fill:#FFFFFF;" points="81.914,310.897 87.969,314.472 90.046,313.273 83.991,309.698 &#9;&#9;&#9;&#9;&#9;"/>
            <polygon style="fill:#FFFFFF;" points="69.764,303.846 75.818,307.421 77.895,306.222 71.841,302.647 &#9;&#9;&#9;&#9;&#9;"/>
            <polygon style="fill:#FFFFFF;" points="57.613,296.795 63.668,300.37 65.745,299.171 59.69,295.596 &#9;&#9;&#9;&#9;&#9;"/>
          </g>
          <g>
            <polygon style="fill:#FFFFFF;" points="142.624,346.107 148.68,349.679 150.756,348.479 144.7,344.907 &#9;&#9;&#9;&#9;&#9;"/>
            <polygon style="fill:#FFFFFF;" points="130.477,339.047 136.532,342.623 138.608,341.424 132.554,337.848 &#9;&#9;&#9;&#9;&#9;"/>
            <polygon style="fill:#FFFFFF;" points="118.326,331.996 124.381,335.572 126.458,334.373 120.403,330.797 &#9;&#9;&#9;&#9;&#9;"/>
          </g>
        </g>
        <g>
          <g>
            <polygon style="fill:#FFFFFF;" points="109.841,317.458 119.342,322.979 121.441,321.767 111.94,316.246 &#9;&#9;&#9;&#9;&#9;"/>
            <polygon style="fill:#FFFFFF;" points="106.084,319.629 115.586,325.15 117.685,323.938 108.183,318.417 &#9;&#9;&#9;&#9;&#9;"/>
            <polygon style="fill:#FFFFFF;" points="102.423,321.895 111.925,327.417 114.024,326.205 104.522,320.683 &#9;&#9;&#9;&#9;&#9;"/>
            <polygon style="fill:#FFFFFF;" points="98.762,324.034 108.264,329.556 110.363,328.344 100.861,322.822 &#9;&#9;&#9;&#9;&#9;"/>
            <polygon style="fill:#FFFFFF;" points="94.8,326.395 104.301,331.916 106.4,330.704 96.899,325.182 &#9;&#9;&#9;&#9;&#9;"/>
          </g>
        </g>
      </g>
      <polygon style="fill:#DCDDD4;" points="350.439,289.806 353.146,291.235 297.149,323.644 297.149,320.649 &#9;&#9;"/>
      <g>
        <g>
          <path style="fill:#DCDDD4;" d="M388.983,282.608l-46.495,27.155l20.392,11.852l-22.717,13.191l-20.327-11.805l-54.021,31.564&#10;&#9;&#9;&#9;&#9;&#9;c-5.665,3.312-12.68,3.33-18.364,0.047l-84.767-48.886l-26.076,15.154l-22.773-13.145l26.076-15.154l-22.652-13.061&#10;&#9;&#9;&#9;&#9;&#9;c-7.731-4.465-7.777-11.712-0.093-16.177l114.75-67.101c7.693-4.465,20.196-4.456,27.927,0l129.123,74.469&#10;&#9;&#9;&#9;&#9;&#9;C393.542,273.352,393.551,279.948,388.983,282.608z"/>
          <g>
            <g>
              <g>
                <path style="fill:#4BDDD9;" d="M223.388,37l-88.374,51.211l98.011,56.538l88.374-51.21L223.388,37z"/>
                <polygon style="fill:#DCDDD4;" points="146.765,88.201 223.393,43.797 309.648,93.548 233.02,137.952 &#9;&#9;&#9;&#9;&#9;&#9;&#9;"/>
                <polygon style="fill:#C7C9B8;" points="223.393,48.801 305.323,96.054 309.648,93.548 223.393,43.797 146.765,88.201 &#10;&#9;&#9;&#9;&#9;&#9;&#9;&#9;&#9;151.091,90.698 &#9;&#9;&#9;&#9;&#9;&#9;&#9;"/>
                <g>
                  <polygon style="fill:#068D93;" points="321.402,93.541 321.371,278.032 232.991,329.237 233.023,163.333 233.023,144.745 &#10;&#9;&#9;&#9;&#9;&#9;&#9;&#9;&#9;&#9;&#9;&#9;&#9;&#9;&#9;&#9;&#9;&#9;"/>
                </g>
                <g>
                  <polygon style="fill:#3ECCC5;" points="233.025,144.749 232.994,329.239 134.983,272.701 135.014,88.211 &#9;&#9;&#9;&#9;&#9;&#9;&#9;&#9;"/>
                </g>
                <g>
                  <polygon style="fill:#3ECCC5;" points="233.002,272.787 233.002,286.421 220.534,293.643 134.985,244.292 134.995,237.506 &#10;&#9;&#9;&#9;&#9;&#9;&#9;&#9;&#9;&#9;134.995,230.679 220.534,280.01 &#9;&#9;&#9;&#9;&#9;&#9;&#9;&#9;"/>
                </g>
                <g>
                  <polygon style="fill:#3ECCC5;" points="233.002,279.625 233.002,286.421 232.991,329.237 134.985,272.704 134.985,244.292 &#10;&#9;&#9;&#9;&#9;&#9;&#9;&#9;&#9;&#9;134.995,237.506 220.534,286.847 &#9;&#9;&#9;&#9;&#9;&#9;&#9;&#9;"/>
                </g>
                <g>
                  <polygon style="fill:#3ECCC5;" points="233.002,272.787 233.002,279.583 232.991,329.237 134.985,272.704 134.995,237.464 &#10;&#9;&#9;&#9;&#9;&#9;&#9;&#9;&#9;&#9;134.995,230.679 220.534,280.01 &#9;&#9;&#9;&#9;&#9;&#9;&#9;&#9;"/>
                </g>
                <polygon style="fill:#055B5B;" points="144.5,278.19 188.128,303.357 188.133,274.434 144.505,249.266 &#9;&#9;&#9;&#9;&#9;&#9;&#9;"/>
                <polygon style="fill:#4BDDD9;" points="144.508,249.266 148.15,251.369 148.14,275.805 144.497,278.189 &#9;&#9;&#9;&#9;&#9;&#9;&#9;"/>
                <path style="fill:#068D93;" d="M220.534,286.847l-85.538-49.341l-0.718-0.416l0.031-0.021l0.687-0.395v-6.796l-0.687,0.396&#10;&#9;&#9;&#9;&#9;&#9;&#9;&#9;&#9;l-5.88,3.403l-5.901,3.424l12.458,7.191l85.549,49.352l12.468-7.223v-6.796L220.534,286.847z"/>
                <polygon style="fill:#068D93;" points="122.525,237.101 122.525,229.816 220.531,286.843 220.537,293.639 &#9;&#9;&#9;&#9;&#9;&#9;&#9;"/>
                <path style="fill:#4BDDD9;" d="M220.534,280.01l-85.538-49.331l-0.687-0.406l-0.031-0.01l0.718-0.416v-6.796l-12.468,7.223&#10;&#9;&#9;&#9;&#9;&#9;&#9;&#9;&#9;l5.901,3.403l5.88,3.393l0.687,0.396l85.538,49.341l12.468-7.223v-6.796L220.534,280.01z"/>
              </g>
              <g>
                <g>
                  <g>
                    <g>
                      <g>
                        <g>
                          <polygon style="fill:#055B5B;" points="252.588,143.167 252.588,150.816 233.023,161.598 233.023,153.959 &#9;&#9;&#9;&#9;&#9;&#9;&#9;&#9;&#9;&#9;&#9;&#9;&#10;&#9;&#9;&#9;&#9;&#9;&#9;&#9;&#9;&#9;&#9;&#9;&#9;&#9;"/>
                        </g>
                        <polygon style="fill:#2BAFAF;" points="252.588,143.167 252.588,150.816 233.023,161.598 233.023,160.099 &#10;&#9;&#9;&#9;&#9;&#9;&#9;&#9;&#9;&#9;&#9;&#9;&#9;251.111,150.16 251.111,144.03 &#9;&#9;&#9;&#9;&#9;&#9;&#9;&#9;&#9;&#9;&#9;"/>
                        <polygon style="fill:#4BDDD9;" points="252.588,150.816 233.023,161.598 233.023,160.099 251.111,150.16 &#9;&#9;&#9;&#9;&#9;&#9;&#9;&#9;&#9;&#9;&#9;"/>
                      </g>
                      <g>
                        <g>
                          <polygon style="fill:#055B5B;" points="204.938,138.454 204.938,146.103 233.01,161.598 233.01,153.959 &#9;&#9;&#9;&#9;&#9;&#9;&#9;&#9;&#9;&#9;&#9;&#9;"/>
                        </g>
                        <polygon style="fill:#2BAFAF;" points="204.938,138.454 204.938,146.103 233.01,161.598 233.01,160.099 206.416,145.447 &#10;&#9;&#9;&#9;&#9;&#9;&#9;&#9;&#9;&#9;&#9;&#9;&#9;206.416,139.318 &#9;&#9;&#9;&#9;&#9;&#9;&#9;&#9;&#9;&#9;&#9;"/>
                        <polygon style="fill:#4BDDD9;" points="204.938,146.103 233.01,161.598 233.01,160.099 206.416,145.447 &#9;&#9;&#9;&#9;&#9;&#9;&#9;&#9;&#9;&#9;&#9;"/>
                      </g>
                    </g>
                    <g>
                      <g>
                        <g>
                          <polygon style="fill:#055B5B;" points="252.588,157.39 252.588,165.039 233.023,175.821 233.023,168.182 &#9;&#9;&#9;&#9;&#9;&#9;&#9;&#9;&#9;&#9;&#9;&#9;&#10;&#9;&#9;&#9;&#9;&#9;&#9;&#9;&#9;&#9;&#9;&#9;&#9;&#9;"/>
                        </g>
                        <polygon style="fill:#2BAFAF;" points="252.588,157.39 252.588,165.039 233.023,175.821 233.023,174.323 &#10;&#9;&#9;&#9;&#9;&#9;&#9;&#9;&#9;&#9;&#9;&#9;&#9;251.111,164.384 251.111,158.254 &#9;&#9;&#9;&#9;&#9;&#9;&#9;&#9;&#9;&#9;&#9;"/>
                        <polygon style="fill:#4BDDD9;" points="252.588,165.039 233.023,175.821 233.023,174.323 251.111,164.384 &#9;&#9;&#9;&#9;&#9;&#9;&#9;&#9;&#9;&#9;&#9;"/>
                      </g>
                      <g>
                        <g>
                          <polygon style="fill:#055B5B;" points="204.938,152.677 204.938,160.327 233.01,175.821 233.01,168.182 &#9;&#9;&#9;&#9;&#9;&#9;&#9;&#9;&#9;&#9;&#9;&#9;"/>
                        </g>
                        <polygon style="fill:#2BAFAF;" points="204.938,152.677 204.938,160.327 233.01,175.821 233.01,174.323 206.416,159.671 &#10;&#9;&#9;&#9;&#9;&#9;&#9;&#9;&#9;&#9;&#9;&#9;&#9;206.416,153.541 &#9;&#9;&#9;&#9;&#9;&#9;&#9;&#9;&#9;&#9;&#9;"/>
                        <polygon style="fill:#4BDDD9;" points="204.938,160.327 233.01,175.821 233.01,174.323 206.416,159.671 &#9;&#9;&#9;&#9;&#9;&#9;&#9;&#9;&#9;&#9;&#9;"/>
                      </g>
                    </g>
                    <g>
                      <g>
                        <g>
                          <polygon style="fill:#055B5B;" points="252.588,171.44 252.588,179.089 233.023,189.871 233.023,182.232 &#9;&#9;&#9;&#9;&#9;&#9;&#9;&#9;&#9;&#9;&#9;&#9;&#10;&#9;&#9;&#9;&#9;&#9;&#9;&#9;&#9;&#9;&#9;&#9;&#9;&#9;"/>
                        </g>
                        <polygon style="fill:#2BAFAF;" points="252.588,171.44 252.588,179.089 233.023,189.871 233.023,188.373 &#10;&#9;&#9;&#9;&#9;&#9;&#9;&#9;&#9;&#9;&#9;&#9;&#9;251.111,178.434 251.111,172.304 &#9;&#9;&#9;&#9;&#9;&#9;&#9;&#9;&#9;&#9;&#9;"/>
                        <polygon style="fill:#4BDDD9;" points="252.588,179.089 233.023,189.871 233.023,188.373 251.111,178.434 &#9;&#9;&#9;&#9;&#9;&#9;&#9;&#9;&#9;&#9;&#9;"/>
                      </g>
                      <g>
                        <g>
                          <polygon style="fill:#055B5B;" points="204.938,166.727 204.938,174.377 233.01,189.871 233.01,182.232 &#9;&#9;&#9;&#9;&#9;&#9;&#9;&#9;&#9;&#9;&#9;&#9;"/>
                        </g>
                        <polygon style="fill:#2BAFAF;" points="204.938,166.727 204.938,174.377 233.01,189.871 233.01,188.373 206.416,173.721 &#10;&#9;&#9;&#9;&#9;&#9;&#9;&#9;&#9;&#9;&#9;&#9;&#9;206.416,167.591 &#9;&#9;&#9;&#9;&#9;&#9;&#9;&#9;&#9;&#9;&#9;"/>
                        <polygon style="fill:#4BDDD9;" points="204.938,174.377 233.01,189.871 233.01,188.373 206.416,173.721 &#9;&#9;&#9;&#9;&#9;&#9;&#9;&#9;&#9;&#9;&#9;"/>
                      </g>
                    </g>
                    <g>
                      <g>
                        <g>
                          <polygon style="fill:#055B5B;" points="252.588,186.184 252.588,193.833 233.023,204.615 233.023,196.976 &#9;&#9;&#9;&#9;&#9;&#9;&#9;&#9;&#9;&#9;&#9;&#9;&#10;&#9;&#9;&#9;&#9;&#9;&#9;&#9;&#9;&#9;&#9;&#9;&#9;&#9;"/>
                        </g>
                        <polygon style="fill:#2BAFAF;" points="252.588,186.184 252.588,193.833 233.023,204.615 233.023,203.117 &#10;&#9;&#9;&#9;&#9;&#9;&#9;&#9;&#9;&#9;&#9;&#9;&#9;251.111,193.178 251.111,187.048 &#9;&#9;&#9;&#9;&#9;&#9;&#9;&#9;&#9;&#9;&#9;"/>
                        <polygon style="fill:#4BDDD9;" points="252.588,193.833 233.023,204.615 233.023,203.117 251.111,193.178 &#9;&#9;&#9;&#9;&#9;&#9;&#9;&#9;&#9;&#9;&#9;"/>
                      </g>
                      <g>
                        <g>
                          <polygon style="fill:#055B5B;" points="204.938,181.471 204.938,189.12 233.01,204.615 233.01,196.976 &#9;&#9;&#9;&#9;&#9;&#9;&#9;&#9;&#9;&#9;&#9;&#9;"/>
                        </g>
                        <polygon style="fill:#2BAFAF;" points="204.938,181.471 204.938,189.12 233.01,204.615 233.01,203.117 206.416,188.465 &#10;&#9;&#9;&#9;&#9;&#9;&#9;&#9;&#9;&#9;&#9;&#9;&#9;206.416,182.335 &#9;&#9;&#9;&#9;&#9;&#9;&#9;&#9;&#9;&#9;&#9;"/>
                        <polygon style="fill:#4BDDD9;" points="204.938,189.12 233.01,204.615 233.01,203.117 206.416,188.465 &#9;&#9;&#9;&#9;&#9;&#9;&#9;&#9;&#9;&#9;&#9;"/>
                      </g>
                    </g>
                    <g>
                      <polygon style="fill:#055B5B;" points="267.681,136.181 260.451,140.371 260.441,148.022 267.681,143.827 &#9;&#9;&#9;&#9;&#9;&#9;&#9;&#9;&#9;&#9;"/>
                      <polygon style="fill:#2BAFAF;" points="266.199,137.04 266.199,143.177 260.443,146.512 260.441,148.022 267.681,143.827 &#10;&#9;&#9;&#9;&#9;&#9;&#9;&#9;&#9;&#9;&#9;&#9;267.681,136.181 &#9;&#9;&#9;&#9;&#9;&#9;&#9;&#9;&#9;&#9;"/>
                      <polygon style="fill:#4BDDD9;" points="266.199,143.177 267.681,143.827 260.441,148.022 260.441,146.512 &#9;&#9;&#9;&#9;&#9;&#9;&#9;&#9;&#9;&#9;"/>
                    </g>
                    <g>
                      <polygon style="fill:#055B5B;" points="282.773,127.461 275.544,131.65 275.534,139.301 282.773,135.106 &#9;&#9;&#9;&#9;&#9;&#9;&#9;&#9;&#9;&#9;"/>
                      <polygon style="fill:#2BAFAF;" points="281.291,128.32 281.291,134.456 275.535,137.791 275.534,139.301 282.773,135.106 &#10;&#9;&#9;&#9;&#9;&#9;&#9;&#9;&#9;&#9;&#9;&#9;282.773,127.461 &#9;&#9;&#9;&#9;&#9;&#9;&#9;&#9;&#9;&#9;"/>
                      <polygon style="fill:#4BDDD9;" points="281.291,134.456 282.773,135.106 275.534,139.301 275.534,137.791 &#9;&#9;&#9;&#9;&#9;&#9;&#9;&#9;&#9;&#9;"/>
                    </g>
                    <g>
                      <polygon style="fill:#055B5B;" points="297.866,118.74 290.636,122.929 290.626,130.581 297.866,126.385 &#9;&#9;&#9;&#9;&#9;&#9;&#9;&#9;&#9;&#9;"/>
                      <polygon style="fill:#2BAFAF;" points="296.384,119.599 296.384,125.735 290.628,129.071 290.626,130.581 &#10;&#9;&#9;&#9;&#9;&#9;&#9;&#9;&#9;&#9;&#9;&#9;297.866,126.385 297.866,118.74 &#9;&#9;&#9;&#9;&#9;&#9;&#9;&#9;&#9;&#9;"/>
                      <polygon style="fill:#4BDDD9;" points="296.384,125.735 297.866,126.385 290.626,130.581 290.626,129.071 &#9;&#9;&#9;&#9;&#9;&#9;&#9;&#9;&#9;&#9;"/>
                    </g>
                    <g>
                      <g>
                        <polygon style="fill:#055B5B;" points="312.958,110.019 305.728,114.209 305.718,121.86 312.958,117.665 &#9;&#9;&#9;&#9;&#9;&#9;&#9;&#9;&#9;&#9;&#9;"/>
                      </g>
                      <polygon style="fill:#2BAFAF;" points="311.476,110.878 311.476,117.015 305.72,120.35 305.718,121.86 312.958,117.665 &#10;&#9;&#9;&#9;&#9;&#9;&#9;&#9;&#9;&#9;&#9;&#9;312.958,110.019 &#9;&#9;&#9;&#9;&#9;&#9;&#9;&#9;&#9;&#9;"/>
                      <polygon style="fill:#4BDDD9;" points="311.476,117.015 312.958,117.665 305.718,121.86 305.718,120.35 &#9;&#9;&#9;&#9;&#9;&#9;&#9;&#9;&#9;&#9;"/>
                    </g>
                  </g>
                  <g>
                    <g>
                      <polygon style="fill:#055B5B;" points="267.681,150.692 260.451,154.881 260.441,162.532 267.681,158.337 &#9;&#9;&#9;&#9;&#9;&#9;&#9;&#9;&#9;&#9;"/>
                      <polygon style="fill:#2BAFAF;" points="266.199,151.551 266.199,157.687 260.443,161.022 260.441,162.532 &#10;&#9;&#9;&#9;&#9;&#9;&#9;&#9;&#9;&#9;&#9;&#9;267.681,158.337 267.681,150.692 &#9;&#9;&#9;&#9;&#9;&#9;&#9;&#9;&#9;&#9;"/>
                      <polygon style="fill:#4BDDD9;" points="266.199,157.687 267.681,158.337 260.441,162.532 260.441,161.022 &#9;&#9;&#9;&#9;&#9;&#9;&#9;&#9;&#9;&#9;"/>
                    </g>
                    <g>
                      <polygon style="fill:#055B5B;" points="282.773,141.971 275.544,146.161 275.534,153.812 282.773,149.616 &#9;&#9;&#9;&#9;&#9;&#9;&#9;&#9;&#9;&#9;"/>
                      <polygon style="fill:#2BAFAF;" points="281.291,142.83 281.291,148.966 275.535,152.302 275.534,153.812 282.773,149.616 &#10;&#9;&#9;&#9;&#9;&#9;&#9;&#9;&#9;&#9;&#9;&#9;282.773,141.971 &#9;&#9;&#9;&#9;&#9;&#9;&#9;&#9;&#9;&#9;"/>
                      <polygon style="fill:#4BDDD9;" points="281.291,148.966 282.773,149.616 275.534,153.812 275.534,152.302 &#9;&#9;&#9;&#9;&#9;&#9;&#9;&#9;&#9;&#9;"/>
                    </g>
                    <g>
                      <polygon style="fill:#055B5B;" points="297.866,133.251 290.636,137.44 290.626,145.091 297.866,140.896 &#9;&#9;&#9;&#9;&#9;&#9;&#9;&#9;&#9;&#9;"/>
                      <polygon style="fill:#2BAFAF;" points="296.384,134.109 296.384,140.246 290.628,143.581 290.626,145.091 &#10;&#9;&#9;&#9;&#9;&#9;&#9;&#9;&#9;&#9;&#9;&#9;297.866,140.896 297.866,133.25 &#9;&#9;&#9;&#9;&#9;&#9;&#9;&#9;&#9;&#9;"/>
                      <polygon style="fill:#4BDDD9;" points="296.384,140.246 297.866,140.896 290.626,145.091 290.626,143.581 &#9;&#9;&#9;&#9;&#9;&#9;&#9;&#9;&#9;&#9;"/>
                    </g>
                    <g>
                      <polygon style="fill:#055B5B;" points="312.958,124.53 305.728,128.719 305.718,136.37 312.958,132.175 &#9;&#9;&#9;&#9;&#9;&#9;&#9;&#9;&#9;&#9;"/>
                      <polygon style="fill:#2BAFAF;" points="311.476,125.389 311.476,131.525 305.72,134.86 305.718,136.37 312.958,132.175 &#10;&#9;&#9;&#9;&#9;&#9;&#9;&#9;&#9;&#9;&#9;&#9;312.958,124.53 &#9;&#9;&#9;&#9;&#9;&#9;&#9;&#9;&#9;&#9;"/>
                      <polygon style="fill:#4BDDD9;" points="311.476,131.525 312.958,132.175 305.718,136.37 305.718,134.86 &#9;&#9;&#9;&#9;&#9;&#9;&#9;&#9;&#9;&#9;"/>
                    </g>
                  </g>
                  <g>
                    <g>
                      <polygon style="fill:#055B5B;" points="267.681,165.202 260.451,169.392 260.441,177.043 267.681,172.847 &#9;&#9;&#9;&#9;&#9;&#9;&#9;&#9;&#9;&#9;"/>
                      <polygon style="fill:#2BAFAF;" points="266.199,166.061 266.199,172.197 260.443,175.533 260.441,177.043 &#10;&#9;&#9;&#9;&#9;&#9;&#9;&#9;&#9;&#9;&#9;&#9;267.681,172.847 267.681,165.202 &#9;&#9;&#9;&#9;&#9;&#9;&#9;&#9;&#9;&#9;"/>
                      <polygon style="fill:#4BDDD9;" points="266.199,172.197 267.681,172.847 260.441,177.043 260.441,175.533 &#9;&#9;&#9;&#9;&#9;&#9;&#9;&#9;&#9;&#9;"/>
                    </g>
                    <g>
                      <polygon style="fill:#055B5B;" points="282.773,156.482 275.544,160.671 275.534,168.322 282.773,164.127 &#9;&#9;&#9;&#9;&#9;&#9;&#9;&#9;&#9;&#9;"/>
                      <polygon style="fill:#2BAFAF;" points="281.291,157.34 281.291,163.477 275.535,166.812 275.534,168.322 282.773,164.127 &#10;&#9;&#9;&#9;&#9;&#9;&#9;&#9;&#9;&#9;&#9;&#9;282.773,156.481 &#9;&#9;&#9;&#9;&#9;&#9;&#9;&#9;&#9;&#9;"/>
                      <polygon style="fill:#4BDDD9;" points="281.291,163.477 282.773,164.127 275.534,168.322 275.534,166.812 &#9;&#9;&#9;&#9;&#9;&#9;&#9;&#9;&#9;&#9;"/>
                    </g>
                    <g>
                      <polygon style="fill:#055B5B;" points="297.866,147.761 290.636,151.95 290.626,159.601 297.866,155.406 &#9;&#9;&#9;&#9;&#9;&#9;&#9;&#9;&#9;&#9;"/>
                      <polygon style="fill:#2BAFAF;" points="296.384,148.62 296.384,154.756 290.628,158.091 290.626,159.601 297.866,155.406 &#10;&#9;&#9;&#9;&#9;&#9;&#9;&#9;&#9;&#9;&#9;&#9;297.866,147.761 &#9;&#9;&#9;&#9;&#9;&#9;&#9;&#9;&#9;&#9;"/>
                      <polygon style="fill:#4BDDD9;" points="296.384,154.756 297.866,155.406 290.626,159.601 290.626,158.091 &#9;&#9;&#9;&#9;&#9;&#9;&#9;&#9;&#9;&#9;"/>
                    </g>
                    <g>
                      <polygon style="fill:#055B5B;" points="312.958,139.04 305.728,143.23 305.718,150.881 312.958,146.685 &#9;&#9;&#9;&#9;&#9;&#9;&#9;&#9;&#9;&#9;"/>
                      <polygon style="fill:#2BAFAF;" points="311.476,139.899 311.476,146.035 305.72,149.371 305.718,150.881 312.958,146.685 &#10;&#9;&#9;&#9;&#9;&#9;&#9;&#9;&#9;&#9;&#9;&#9;312.958,139.04 &#9;&#9;&#9;&#9;&#9;&#9;&#9;&#9;&#9;&#9;"/>
                      <polygon style="fill:#4BDDD9;" points="311.476,146.035 312.958,146.685 305.718,150.881 305.718,149.371 &#9;&#9;&#9;&#9;&#9;&#9;&#9;&#9;&#9;&#9;"/>
                    </g>
                  </g>
                  <g>
                    <g>
                      <polygon style="fill:#055B5B;" points="267.681,179.712 260.451,183.902 260.441,191.553 267.681,187.358 &#9;&#9;&#9;&#9;&#9;&#9;&#9;&#9;&#9;&#9;"/>
                      <polygon style="fill:#2BAFAF;" points="266.199,180.571 266.199,186.708 260.443,190.043 260.441,191.553 &#10;&#9;&#9;&#9;&#9;&#9;&#9;&#9;&#9;&#9;&#9;&#9;267.681,187.358 267.681,179.712 &#9;&#9;&#9;&#9;&#9;&#9;&#9;&#9;&#9;&#9;"/>
                      <polygon style="fill:#4BDDD9;" points="266.199,186.708 267.681,187.358 260.441,191.553 260.441,190.043 &#9;&#9;&#9;&#9;&#9;&#9;&#9;&#9;&#9;&#9;"/>
                    </g>
                    <g>
                      <polygon style="fill:#055B5B;" points="282.773,170.992 275.544,175.181 275.534,182.832 282.773,178.637 &#9;&#9;&#9;&#9;&#9;&#9;&#9;&#9;&#9;&#9;"/>
                      <polygon style="fill:#2BAFAF;" points="281.291,171.851 281.291,177.987 275.535,181.322 275.534,182.832 &#10;&#9;&#9;&#9;&#9;&#9;&#9;&#9;&#9;&#9;&#9;&#9;282.773,178.637 282.773,170.992 &#9;&#9;&#9;&#9;&#9;&#9;&#9;&#9;&#9;&#9;"/>
                      <polygon style="fill:#4BDDD9;" points="281.291,177.987 282.773,178.637 275.534,182.832 275.534,181.322 &#9;&#9;&#9;&#9;&#9;&#9;&#9;&#9;&#9;&#9;"/>
                    </g>
                    <g>
                      <polygon style="fill:#055B5B;" points="297.866,162.271 290.636,166.461 290.626,174.112 297.866,169.916 &#9;&#9;&#9;&#9;&#9;&#9;&#9;&#9;&#9;&#9;"/>
                      <polygon style="fill:#2BAFAF;" points="296.384,163.13 296.384,169.266 290.628,172.602 290.626,174.112 297.866,169.916 &#10;&#9;&#9;&#9;&#9;&#9;&#9;&#9;&#9;&#9;&#9;&#9;297.866,162.271 &#9;&#9;&#9;&#9;&#9;&#9;&#9;&#9;&#9;&#9;"/>
                      <polygon style="fill:#4BDDD9;" points="296.384,169.266 297.866,169.916 290.626,174.112 290.626,172.602 &#9;&#9;&#9;&#9;&#9;&#9;&#9;&#9;&#9;&#9;"/>
                    </g>
                    <g>
                      <g>
                        <polygon style="fill:#055B5B;" points="312.958,153.551 305.728,157.74 305.718,165.391 312.958,161.196 &#9;&#9;&#9;&#9;&#9;&#9;&#9;&#9;&#9;&#9;&#9;"/>
                      </g>
                      <polygon style="fill:#2BAFAF;" points="311.476,154.409 311.476,160.546 305.72,163.881 305.718,165.391 312.958,161.196 &#10;&#9;&#9;&#9;&#9;&#9;&#9;&#9;&#9;&#9;&#9;&#9;312.958,153.551 &#9;&#9;&#9;&#9;&#9;&#9;&#9;&#9;&#9;&#9;"/>
                      <polygon style="fill:#4BDDD9;" points="311.476,160.546 312.958,161.196 305.718,165.391 305.718,163.881 &#9;&#9;&#9;&#9;&#9;&#9;&#9;&#9;&#9;&#9;"/>
                    </g>
                  </g>
                </g>
                <g>
                  <g>
                    <g>
                      <g>
                        <polygon style="fill:#055B5B;" points="187.713,133.039 194.943,137.229 194.953,144.88 187.713,140.684 &#9;&#9;&#9;&#9;&#9;&#9;&#9;&#9;&#9;&#9;&#9;"/>
                        <polygon style="fill:#2BAFAF;" points="189.195,133.898 189.195,140.034 194.951,143.37 194.953,144.88 187.713,140.684 &#10;&#9;&#9;&#9;&#9;&#9;&#9;&#9;&#9;&#9;&#9;&#9;&#9;187.713,133.039 &#9;&#9;&#9;&#9;&#9;&#9;&#9;&#9;&#9;&#9;&#9;"/>
                        <polygon style="fill:#4BDDD9;" points="189.195,140.034 187.713,140.684 194.953,144.88 194.953,143.37 &#9;&#9;&#9;&#9;&#9;&#9;&#9;&#9;&#9;&#9;&#9;"/>
                      </g>
                      <g>
                        <polygon style="fill:#055B5B;" points="172.621,124.318 179.851,128.508 179.861,136.159 172.621,131.964 &#9;&#9;&#9;&#9;&#9;&#9;&#9;&#9;&#9;&#9;&#9;"/>
                        <polygon style="fill:#2BAFAF;" points="174.103,125.177 174.103,131.314 179.859,134.649 179.861,136.159 &#10;&#9;&#9;&#9;&#9;&#9;&#9;&#9;&#9;&#9;&#9;&#9;&#9;172.621,131.964 172.621,124.318 &#9;&#9;&#9;&#9;&#9;&#9;&#9;&#9;&#9;&#9;&#9;"/>
                        <polygon style="fill:#4BDDD9;" points="174.103,131.314 172.621,131.964 179.861,136.159 179.861,134.649 &#9;&#9;&#9;&#9;&#9;&#9;&#9;&#9;&#9;&#9;&#9;"/>
                      </g>
                      <g>
                        <polygon style="fill:#055B5B;" points="157.529,115.598 164.758,119.787 164.768,127.438 157.529,123.243 &#9;&#9;&#9;&#9;&#9;&#9;&#9;&#9;&#9;&#9;&#9;"/>
                        <polygon style="fill:#2BAFAF;" points="159.011,116.456 159.011,122.593 164.766,125.928 164.768,127.438 &#10;&#9;&#9;&#9;&#9;&#9;&#9;&#9;&#9;&#9;&#9;&#9;&#9;157.529,123.243 157.529,115.598 &#9;&#9;&#9;&#9;&#9;&#9;&#9;&#9;&#9;&#9;&#9;"/>
                        <polygon style="fill:#4BDDD9;" points="159.011,122.593 157.529,123.243 164.768,127.438 164.768,125.928 &#9;&#9;&#9;&#9;&#9;&#9;&#9;&#9;&#9;&#9;&#9;"/>
                      </g>
                      <g>
                        <g>
                          <polygon style="fill:#055B5B;" points="142.436,106.877 149.666,111.066 149.676,118.717 142.436,114.522 &#9;&#9;&#9;&#9;&#9;&#9;&#9;&#9;&#9;&#9;&#9;&#9;&#10;&#9;&#9;&#9;&#9;&#9;&#9;&#9;&#9;&#9;&#9;&#9;&#9;&#9;"/>
                        </g>
                        <polygon style="fill:#2BAFAF;" points="143.918,107.736 143.918,113.872 149.674,117.207 149.676,118.717 &#10;&#9;&#9;&#9;&#9;&#9;&#9;&#9;&#9;&#9;&#9;&#9;&#9;142.436,114.522 142.436,106.877 &#9;&#9;&#9;&#9;&#9;&#9;&#9;&#9;&#9;&#9;&#9;"/>
                        <polygon style="fill:#4BDDD9;" points="143.918,113.872 142.436,114.522 149.676,118.717 149.676,117.207 &#9;&#9;&#9;&#9;&#9;&#9;&#9;&#9;&#9;&#9;&#9;"/>
                      </g>
                    </g>
                    <g>
                      <g>
                        <polygon style="fill:#055B5B;" points="187.713,147.549 194.943,151.739 194.953,159.39 187.713,155.195 &#9;&#9;&#9;&#9;&#9;&#9;&#9;&#9;&#9;&#9;&#9;"/>
                        <polygon style="fill:#2BAFAF;" points="189.195,148.408 189.195,154.544 194.951,157.88 194.953,159.39 187.713,155.195 &#10;&#9;&#9;&#9;&#9;&#9;&#9;&#9;&#9;&#9;&#9;&#9;&#9;187.713,147.549 &#9;&#9;&#9;&#9;&#9;&#9;&#9;&#9;&#9;&#9;&#9;"/>
                        <polygon style="fill:#4BDDD9;" points="189.195,154.544 187.713,155.195 194.953,159.39 194.953,157.88 &#9;&#9;&#9;&#9;&#9;&#9;&#9;&#9;&#9;&#9;&#9;"/>
                      </g>
                      <g>
                        <polygon style="fill:#055B5B;" points="172.621,138.829 179.851,143.018 179.861,150.669 172.621,146.474 &#9;&#9;&#9;&#9;&#9;&#9;&#9;&#9;&#9;&#9;&#9;"/>
                        <polygon style="fill:#2BAFAF;" points="174.103,139.688 174.103,145.824 179.859,149.159 179.861,150.669 &#10;&#9;&#9;&#9;&#9;&#9;&#9;&#9;&#9;&#9;&#9;&#9;&#9;172.621,146.474 172.621,138.829 &#9;&#9;&#9;&#9;&#9;&#9;&#9;&#9;&#9;&#9;&#9;"/>
                        <polygon style="fill:#4BDDD9;" points="174.103,145.824 172.621,146.474 179.861,150.669 179.861,149.159 &#9;&#9;&#9;&#9;&#9;&#9;&#9;&#9;&#9;&#9;&#9;"/>
                      </g>
                      <g>
                        <polygon style="fill:#055B5B;" points="157.529,130.108 164.758,134.298 164.768,141.949 157.529,137.753 &#9;&#9;&#9;&#9;&#9;&#9;&#9;&#9;&#9;&#9;&#9;"/>
                        <polygon style="fill:#2BAFAF;" points="159.011,130.967 159.011,137.103 164.766,140.439 164.768,141.949 &#10;&#9;&#9;&#9;&#9;&#9;&#9;&#9;&#9;&#9;&#9;&#9;&#9;157.529,137.753 157.529,130.108 &#9;&#9;&#9;&#9;&#9;&#9;&#9;&#9;&#9;&#9;&#9;"/>
                        <polygon style="fill:#4BDDD9;" points="159.011,137.103 157.529,137.753 164.768,141.949 164.768,140.439 &#9;&#9;&#9;&#9;&#9;&#9;&#9;&#9;&#9;&#9;&#9;"/>
                      </g>
                      <g>
                        <polygon style="fill:#055B5B;" points="142.436,121.387 149.666,125.577 149.676,133.228 142.436,129.033 &#9;&#9;&#9;&#9;&#9;&#9;&#9;&#9;&#9;&#9;&#9;"/>
                        <polygon style="fill:#2BAFAF;" points="143.918,122.246 143.918,128.383 149.674,131.718 149.676,133.228 &#10;&#9;&#9;&#9;&#9;&#9;&#9;&#9;&#9;&#9;&#9;&#9;&#9;142.436,129.033 142.436,121.387 &#9;&#9;&#9;&#9;&#9;&#9;&#9;&#9;&#9;&#9;&#9;"/>
                        <polygon style="fill:#4BDDD9;" points="143.918,128.383 142.436,129.033 149.676,133.228 149.676,131.718 &#9;&#9;&#9;&#9;&#9;&#9;&#9;&#9;&#9;&#9;&#9;"/>
                      </g>
                    </g>
                    <g>
                      <g>
                        <polygon style="fill:#055B5B;" points="187.713,162.06 194.943,166.249 194.953,173.9 187.713,169.705 &#9;&#9;&#9;&#9;&#9;&#9;&#9;&#9;&#9;&#9;&#9;"/>
                        <polygon style="fill:#2BAFAF;" points="189.195,162.919 189.195,169.055 194.951,172.39 194.953,173.9 187.713,169.705 &#10;&#9;&#9;&#9;&#9;&#9;&#9;&#9;&#9;&#9;&#9;&#9;&#9;187.713,162.06 &#9;&#9;&#9;&#9;&#9;&#9;&#9;&#9;&#9;&#9;&#9;"/>
                        <polygon style="fill:#4BDDD9;" points="189.195,169.055 187.713,169.705 194.953,173.9 194.953,172.39 &#9;&#9;&#9;&#9;&#9;&#9;&#9;&#9;&#9;&#9;&#9;"/>
                      </g>
                      <g>
                        <polygon style="fill:#055B5B;" points="172.621,153.339 179.851,157.529 179.861,165.18 172.621,160.984 &#9;&#9;&#9;&#9;&#9;&#9;&#9;&#9;&#9;&#9;&#9;"/>
                        <polygon style="fill:#2BAFAF;" points="174.103,154.198 174.103,160.334 179.859,163.67 179.861,165.18 172.621,160.984 &#10;&#9;&#9;&#9;&#9;&#9;&#9;&#9;&#9;&#9;&#9;&#9;&#9;172.621,153.339 &#9;&#9;&#9;&#9;&#9;&#9;&#9;&#9;&#9;&#9;&#9;"/>
                        <polygon style="fill:#4BDDD9;" points="174.103,160.334 172.621,160.984 179.861,165.18 179.861,163.67 &#9;&#9;&#9;&#9;&#9;&#9;&#9;&#9;&#9;&#9;&#9;"/>
                      </g>
                      <g>
                        <polygon style="fill:#055B5B;" points="157.529,144.618 164.758,148.808 164.768,156.459 157.529,152.264 &#9;&#9;&#9;&#9;&#9;&#9;&#9;&#9;&#9;&#9;&#9;"/>
                        <polygon style="fill:#2BAFAF;" points="159.011,145.477 159.011,151.614 164.766,154.949 164.768,156.459 &#10;&#9;&#9;&#9;&#9;&#9;&#9;&#9;&#9;&#9;&#9;&#9;&#9;157.529,152.264 157.529,144.618 &#9;&#9;&#9;&#9;&#9;&#9;&#9;&#9;&#9;&#9;&#9;"/>
                        <polygon style="fill:#4BDDD9;" points="159.011,151.614 157.529,152.264 164.768,156.459 164.768,154.949 &#9;&#9;&#9;&#9;&#9;&#9;&#9;&#9;&#9;&#9;&#9;"/>
                      </g>
                      <g>
                        <polygon style="fill:#055B5B;" points="142.436,135.898 149.666,140.087 149.676,147.738 142.436,143.543 &#9;&#9;&#9;&#9;&#9;&#9;&#9;&#9;&#9;&#9;&#9;"/>
                        <polygon style="fill:#2BAFAF;" points="143.918,136.757 143.918,142.893 149.674,146.228 149.676,147.738 &#10;&#9;&#9;&#9;&#9;&#9;&#9;&#9;&#9;&#9;&#9;&#9;&#9;142.436,143.543 142.436,135.898 &#9;&#9;&#9;&#9;&#9;&#9;&#9;&#9;&#9;&#9;&#9;"/>
                        <polygon style="fill:#4BDDD9;" points="143.918,142.893 142.436,143.543 149.676,147.738 149.676,146.228 &#9;&#9;&#9;&#9;&#9;&#9;&#9;&#9;&#9;&#9;&#9;"/>
                      </g>
                    </g>
                    <g>
                      <g>
                        <polygon style="fill:#055B5B;" points="187.713,176.57 194.943,180.76 194.953,188.411 187.713,184.215 &#9;&#9;&#9;&#9;&#9;&#9;&#9;&#9;&#9;&#9;&#9;"/>
                        <polygon style="fill:#2BAFAF;" points="189.195,177.429 189.195,183.565 194.951,186.901 194.953,188.411 &#10;&#9;&#9;&#9;&#9;&#9;&#9;&#9;&#9;&#9;&#9;&#9;&#9;187.713,184.215 187.713,176.57 &#9;&#9;&#9;&#9;&#9;&#9;&#9;&#9;&#9;&#9;&#9;"/>
                        <polygon style="fill:#4BDDD9;" points="189.195,183.565 187.713,184.215 194.953,188.411 194.953,186.901 &#9;&#9;&#9;&#9;&#9;&#9;&#9;&#9;&#9;&#9;&#9;"/>
                      </g>
                      <g>
                        <polygon style="fill:#055B5B;" points="172.621,167.85 179.851,172.039 179.861,179.69 172.621,175.495 &#9;&#9;&#9;&#9;&#9;&#9;&#9;&#9;&#9;&#9;&#9;"/>
                        <polygon style="fill:#2BAFAF;" points="174.103,168.708 174.103,174.845 179.859,178.18 179.861,179.69 172.621,175.495 &#10;&#9;&#9;&#9;&#9;&#9;&#9;&#9;&#9;&#9;&#9;&#9;&#9;172.621,167.849 &#9;&#9;&#9;&#9;&#9;&#9;&#9;&#9;&#9;&#9;&#9;"/>
                        <polygon style="fill:#4BDDD9;" points="174.103,174.845 172.621,175.495 179.861,179.69 179.861,178.18 &#9;&#9;&#9;&#9;&#9;&#9;&#9;&#9;&#9;&#9;&#9;"/>
                      </g>
                      <g>
                        <polygon style="fill:#055B5B;" points="157.529,159.129 164.758,163.318 164.768,170.969 157.529,166.774 &#9;&#9;&#9;&#9;&#9;&#9;&#9;&#9;&#9;&#9;&#9;"/>
                        <polygon style="fill:#2BAFAF;" points="159.011,159.988 159.011,166.124 164.766,169.459 164.768,170.969 &#10;&#9;&#9;&#9;&#9;&#9;&#9;&#9;&#9;&#9;&#9;&#9;&#9;157.529,166.774 157.529,159.129 &#9;&#9;&#9;&#9;&#9;&#9;&#9;&#9;&#9;&#9;&#9;"/>
                        <polygon style="fill:#4BDDD9;" points="159.011,166.124 157.529,166.774 164.768,170.969 164.768,169.459 &#9;&#9;&#9;&#9;&#9;&#9;&#9;&#9;&#9;&#9;&#9;"/>
                      </g>
                      <g>
                        <g>
                          <polygon style="fill:#055B5B;" points="142.436,150.408 149.666,154.598 149.676,162.249 142.436,158.053 &#9;&#9;&#9;&#9;&#9;&#9;&#9;&#9;&#9;&#9;&#9;&#9;&#10;&#9;&#9;&#9;&#9;&#9;&#9;&#9;&#9;&#9;&#9;&#9;&#9;&#9;"/>
                        </g>
                        <polygon style="fill:#2BAFAF;" points="143.918,151.267 143.918,157.403 149.674,160.739 149.676,162.249 &#10;&#9;&#9;&#9;&#9;&#9;&#9;&#9;&#9;&#9;&#9;&#9;&#9;142.436,158.053 142.436,150.408 &#9;&#9;&#9;&#9;&#9;&#9;&#9;&#9;&#9;&#9;&#9;"/>
                        <polygon style="fill:#4BDDD9;" points="143.918,157.403 142.436,158.053 149.676,162.249 149.676,160.739 &#9;&#9;&#9;&#9;&#9;&#9;&#9;&#9;&#9;&#9;&#9;"/>
                      </g>
                    </g>
                  </g>
                  <g>
                    <g>
                      <g>
                        <polygon style="fill:#055B5B;" points="188.06,191.434 195.29,195.623 195.3,203.274 188.06,199.079 &#9;&#9;&#9;&#9;&#9;&#9;&#9;&#9;&#9;&#9;&#9;"/>
                        <polygon style="fill:#2BAFAF;" points="189.542,192.293 189.542,198.429 195.298,201.764 195.3,203.274 188.06,199.079 &#10;&#9;&#9;&#9;&#9;&#9;&#9;&#9;&#9;&#9;&#9;&#9;&#9;188.06,191.434 &#9;&#9;&#9;&#9;&#9;&#9;&#9;&#9;&#9;&#9;&#9;"/>
                        <polygon style="fill:#4BDDD9;" points="189.542,198.429 188.06,199.079 195.3,203.274 195.3,201.764 &#9;&#9;&#9;&#9;&#9;&#9;&#9;&#9;&#9;&#9;&#9;"/>
                      </g>
                      <g>
                        <polygon style="fill:#055B5B;" points="172.968,182.713 180.198,186.903 180.208,194.554 172.968,190.358 &#9;&#9;&#9;&#9;&#9;&#9;&#9;&#9;&#9;&#9;&#9;"/>
                        <polygon style="fill:#2BAFAF;" points="174.45,183.572 174.45,189.708 180.206,193.044 180.208,194.554 172.968,190.358 &#10;&#9;&#9;&#9;&#9;&#9;&#9;&#9;&#9;&#9;&#9;&#9;&#9;172.968,182.713 &#9;&#9;&#9;&#9;&#9;&#9;&#9;&#9;&#9;&#9;&#9;"/>
                        <polygon style="fill:#4BDDD9;" points="174.45,189.708 172.968,190.358 180.208,194.554 180.208,193.044 &#9;&#9;&#9;&#9;&#9;&#9;&#9;&#9;&#9;&#9;&#9;"/>
                      </g>
                      <g>
                        <polygon style="fill:#055B5B;" points="157.876,173.993 165.105,178.182 165.115,185.833 157.876,181.638 &#9;&#9;&#9;&#9;&#9;&#9;&#9;&#9;&#9;&#9;&#9;"/>
                        <polygon style="fill:#2BAFAF;" points="159.357,174.851 159.357,180.988 165.113,184.323 165.115,185.833 &#10;&#9;&#9;&#9;&#9;&#9;&#9;&#9;&#9;&#9;&#9;&#9;&#9;157.875,181.638 157.875,173.992 &#9;&#9;&#9;&#9;&#9;&#9;&#9;&#9;&#9;&#9;&#9;"/>
                        <polygon style="fill:#4BDDD9;" points="159.357,180.988 157.875,181.638 165.115,185.833 165.115,184.323 &#9;&#9;&#9;&#9;&#9;&#9;&#9;&#9;&#9;&#9;&#9;"/>
                      </g>
                      <g>
                        <polygon style="fill:#055B5B;" points="142.783,165.272 150.013,169.461 150.023,177.112 142.783,172.917 &#9;&#9;&#9;&#9;&#9;&#9;&#9;&#9;&#9;&#9;&#9;"/>
                        <polygon style="fill:#2BAFAF;" points="144.265,166.131 144.265,172.267 150.021,175.602 150.023,177.112 &#10;&#9;&#9;&#9;&#9;&#9;&#9;&#9;&#9;&#9;&#9;&#9;&#9;142.783,172.917 142.783,165.272 &#9;&#9;&#9;&#9;&#9;&#9;&#9;&#9;&#9;&#9;&#9;"/>
                        <polygon style="fill:#4BDDD9;" points="144.265,172.267 142.783,172.917 150.023,177.112 150.023,175.602 &#9;&#9;&#9;&#9;&#9;&#9;&#9;&#9;&#9;&#9;&#9;"/>
                      </g>
                    </g>
                    <g>
                      <g>
                        <polygon style="fill:#055B5B;" points="188.06,205.944 195.29,210.134 195.3,217.785 188.06,213.589 &#9;&#9;&#9;&#9;&#9;&#9;&#9;&#9;&#9;&#9;&#9;"/>
                        <polygon style="fill:#2BAFAF;" points="189.542,206.803 189.542,212.939 195.298,216.275 195.3,217.785 188.06,213.589 &#10;&#9;&#9;&#9;&#9;&#9;&#9;&#9;&#9;&#9;&#9;&#9;&#9;188.06,205.944 &#9;&#9;&#9;&#9;&#9;&#9;&#9;&#9;&#9;&#9;&#9;"/>
                        <polygon style="fill:#4BDDD9;" points="189.542,212.939 188.06,213.589 195.3,217.785 195.3,216.275 &#9;&#9;&#9;&#9;&#9;&#9;&#9;&#9;&#9;&#9;&#9;"/>
                      </g>
                      <g>
                        <polygon style="fill:#055B5B;" points="172.968,197.224 180.198,201.413 180.208,209.064 172.968,204.869 &#9;&#9;&#9;&#9;&#9;&#9;&#9;&#9;&#9;&#9;&#9;"/>
                        <polygon style="fill:#2BAFAF;" points="174.45,198.082 174.45,204.219 180.206,207.554 180.208,209.064 172.968,204.869 &#10;&#9;&#9;&#9;&#9;&#9;&#9;&#9;&#9;&#9;&#9;&#9;&#9;172.968,197.224 &#9;&#9;&#9;&#9;&#9;&#9;&#9;&#9;&#9;&#9;&#9;"/>
                        <polygon style="fill:#4BDDD9;" points="174.45,204.219 172.968,204.869 180.208,209.064 180.208,207.554 &#9;&#9;&#9;&#9;&#9;&#9;&#9;&#9;&#9;&#9;&#9;"/>
                      </g>
                      <g>
                        <polygon style="fill:#055B5B;" points="157.876,188.503 165.105,192.692 165.115,200.343 157.876,196.148 &#9;&#9;&#9;&#9;&#9;&#9;&#9;&#9;&#9;&#9;&#9;"/>
                        <polygon style="fill:#2BAFAF;" points="159.357,189.362 159.357,195.498 165.113,198.833 165.115,200.343 &#10;&#9;&#9;&#9;&#9;&#9;&#9;&#9;&#9;&#9;&#9;&#9;&#9;157.875,196.148 157.875,188.503 &#9;&#9;&#9;&#9;&#9;&#9;&#9;&#9;&#9;&#9;&#9;"/>
                        <polygon style="fill:#4BDDD9;" points="159.357,195.498 157.875,196.148 165.115,200.343 165.115,198.833 &#9;&#9;&#9;&#9;&#9;&#9;&#9;&#9;&#9;&#9;&#9;"/>
                      </g>
                      <g>
                        <polygon style="fill:#055B5B;" points="142.783,179.782 150.013,183.972 150.023,191.623 142.783,187.427 &#9;&#9;&#9;&#9;&#9;&#9;&#9;&#9;&#9;&#9;&#9;"/>
                        <polygon style="fill:#2BAFAF;" points="144.265,180.641 144.265,186.777 150.021,190.113 150.023,191.623 &#10;&#9;&#9;&#9;&#9;&#9;&#9;&#9;&#9;&#9;&#9;&#9;&#9;142.783,187.427 142.783,179.782 &#9;&#9;&#9;&#9;&#9;&#9;&#9;&#9;&#9;&#9;&#9;"/>
                        <polygon style="fill:#4BDDD9;" points="144.265,186.777 142.783,187.427 150.023,191.623 150.023,190.113 &#9;&#9;&#9;&#9;&#9;&#9;&#9;&#9;&#9;&#9;&#9;"/>
                      </g>
                    </g>
                    <g>
                      <g>
                        <polygon style="fill:#055B5B;" points="188.06,220.455 195.29,224.644 195.3,232.295 188.06,228.1 &#9;&#9;&#9;&#9;&#9;&#9;&#9;&#9;&#9;&#9;&#9;"/>
                        <polygon style="fill:#2BAFAF;" points="189.542,221.313 189.542,227.45 195.298,230.785 195.3,232.295 188.06,228.1 &#10;&#9;&#9;&#9;&#9;&#9;&#9;&#9;&#9;&#9;&#9;&#9;&#9;188.06,220.455 &#9;&#9;&#9;&#9;&#9;&#9;&#9;&#9;&#9;&#9;&#9;"/>
                        <polygon style="fill:#4BDDD9;" points="189.542,227.45 188.06,228.1 195.3,232.295 195.3,230.785 &#9;&#9;&#9;&#9;&#9;&#9;&#9;&#9;&#9;&#9;&#9;"/>
                      </g>
                      <g>
                        <polygon style="fill:#055B5B;" points="172.968,211.734 180.198,215.923 180.208,223.574 172.968,219.379 &#9;&#9;&#9;&#9;&#9;&#9;&#9;&#9;&#9;&#9;&#9;"/>
                        <polygon style="fill:#2BAFAF;" points="174.45,212.593 174.45,218.729 180.206,222.064 180.208,223.574 172.968,219.379 &#10;&#9;&#9;&#9;&#9;&#9;&#9;&#9;&#9;&#9;&#9;&#9;&#9;172.968,211.734 &#9;&#9;&#9;&#9;&#9;&#9;&#9;&#9;&#9;&#9;&#9;"/>
                        <polygon style="fill:#4BDDD9;" points="174.45,218.729 172.968,219.379 180.208,223.574 180.208,222.064 &#9;&#9;&#9;&#9;&#9;&#9;&#9;&#9;&#9;&#9;&#9;"/>
                      </g>
                      <g>
                        <polygon style="fill:#055B5B;" points="157.876,203.013 165.105,207.203 165.115,214.854 157.876,210.658 &#9;&#9;&#9;&#9;&#9;&#9;&#9;&#9;&#9;&#9;&#9;"/>
                        <polygon style="fill:#2BAFAF;" points="159.357,203.872 159.357,210.008 165.113,213.344 165.115,214.854 &#10;&#9;&#9;&#9;&#9;&#9;&#9;&#9;&#9;&#9;&#9;&#9;&#9;157.875,210.658 157.875,203.013 &#9;&#9;&#9;&#9;&#9;&#9;&#9;&#9;&#9;&#9;&#9;"/>
                        <polygon style="fill:#4BDDD9;" points="159.357,210.008 157.875,210.658 165.115,214.854 165.115,213.344 &#9;&#9;&#9;&#9;&#9;&#9;&#9;&#9;&#9;&#9;&#9;"/>
                      </g>
                      <g>
                        <g>
                          <polygon style="fill:#055B5B;" points="142.783,194.293 150.013,198.482 150.023,206.133 142.783,201.938 &#9;&#9;&#9;&#9;&#9;&#9;&#9;&#9;&#9;&#9;&#9;&#9;&#10;&#9;&#9;&#9;&#9;&#9;&#9;&#9;&#9;&#9;&#9;&#9;&#9;&#9;"/>
                        </g>
                        <polygon style="fill:#2BAFAF;" points="144.265,195.151 144.265,201.288 150.021,204.623 150.023,206.133 &#10;&#9;&#9;&#9;&#9;&#9;&#9;&#9;&#9;&#9;&#9;&#9;&#9;142.783,201.938 142.783,194.293 &#9;&#9;&#9;&#9;&#9;&#9;&#9;&#9;&#9;&#9;&#9;"/>
                        <polygon style="fill:#4BDDD9;" points="144.265,201.288 142.783,201.938 150.023,206.133 150.023,204.623 &#9;&#9;&#9;&#9;&#9;&#9;&#9;&#9;&#9;&#9;&#9;"/>
                      </g>
                    </g>
                  </g>
                  <g>
                    <g>
                      <g>
                        <polygon style="fill:#055B5B;" points="188.147,234.911 195.377,239.101 195.387,246.752 188.147,242.557 &#9;&#9;&#9;&#9;&#9;&#9;&#9;&#9;&#9;&#9;&#9;"/>
                        <polygon style="fill:#2BAFAF;" points="189.629,235.77 189.629,241.907 195.385,245.242 195.387,246.752 &#10;&#9;&#9;&#9;&#9;&#9;&#9;&#9;&#9;&#9;&#9;&#9;&#9;188.147,242.557 188.147,234.911 &#9;&#9;&#9;&#9;&#9;&#9;&#9;&#9;&#9;&#9;&#9;"/>
                        <polygon style="fill:#4BDDD9;" points="189.629,241.907 188.147,242.557 195.387,246.752 195.387,245.242 &#9;&#9;&#9;&#9;&#9;&#9;&#9;&#9;&#9;&#9;&#9;"/>
                      </g>
                      <g>
                        <polygon style="fill:#055B5B;" points="173.055,226.191 180.284,230.38 180.294,238.031 173.055,233.836 &#9;&#9;&#9;&#9;&#9;&#9;&#9;&#9;&#9;&#9;&#9;"/>
                        <polygon style="fill:#2BAFAF;" points="174.537,227.05 174.537,233.186 180.292,236.521 180.294,238.031 &#10;&#9;&#9;&#9;&#9;&#9;&#9;&#9;&#9;&#9;&#9;&#9;&#9;173.055,233.836 173.055,226.191 &#9;&#9;&#9;&#9;&#9;&#9;&#9;&#9;&#9;&#9;&#9;"/>
                        <polygon style="fill:#4BDDD9;" points="174.537,233.186 173.055,233.836 180.294,238.031 180.294,236.521 &#9;&#9;&#9;&#9;&#9;&#9;&#9;&#9;&#9;&#9;&#9;"/>
                      </g>
                      <g>
                        <polygon style="fill:#055B5B;" points="157.962,217.47 165.192,221.66 165.202,229.311 157.962,225.115 &#9;&#9;&#9;&#9;&#9;&#9;&#9;&#9;&#9;&#9;&#9;"/>
                        <polygon style="fill:#2BAFAF;" points="159.444,218.329 159.444,224.465 165.2,227.801 165.202,229.311 157.962,225.115 &#10;&#9;&#9;&#9;&#9;&#9;&#9;&#9;&#9;&#9;&#9;&#9;&#9;157.962,217.47 &#9;&#9;&#9;&#9;&#9;&#9;&#9;&#9;&#9;&#9;&#9;"/>
                        <polygon style="fill:#4BDDD9;" points="159.444,224.465 157.962,225.115 165.202,229.311 165.202,227.801 &#9;&#9;&#9;&#9;&#9;&#9;&#9;&#9;&#9;&#9;&#9;"/>
                      </g>
                      <g>
                        <polygon style="fill:#055B5B;" points="142.87,208.749 150.1,212.939 150.11,220.59 142.87,216.395 &#9;&#9;&#9;&#9;&#9;&#9;&#9;&#9;&#9;&#9;&#9;"/>
                        <polygon style="fill:#2BAFAF;" points="144.352,209.608 144.352,215.745 150.108,219.08 150.11,220.59 142.87,216.395 &#10;&#9;&#9;&#9;&#9;&#9;&#9;&#9;&#9;&#9;&#9;&#9;&#9;142.87,208.749 &#9;&#9;&#9;&#9;&#9;&#9;&#9;&#9;&#9;&#9;&#9;"/>
                        <polygon style="fill:#4BDDD9;" points="144.352,215.745 142.87,216.395 150.11,220.59 150.11,219.08 &#9;&#9;&#9;&#9;&#9;&#9;&#9;&#9;&#9;&#9;&#9;"/>
                      </g>
                    </g>
                    <g>
                      <g>
                        <polygon style="fill:#055B5B;" points="188.147,249.422 195.377,253.611 195.387,261.262 188.147,257.067 &#9;&#9;&#9;&#9;&#9;&#9;&#9;&#9;&#9;&#9;&#9;"/>
                        <polygon style="fill:#2BAFAF;" points="189.629,250.281 189.629,256.417 195.385,259.752 195.387,261.262 &#10;&#9;&#9;&#9;&#9;&#9;&#9;&#9;&#9;&#9;&#9;&#9;&#9;188.147,257.067 188.147,249.422 &#9;&#9;&#9;&#9;&#9;&#9;&#9;&#9;&#9;&#9;&#9;"/>
                        <polygon style="fill:#4BDDD9;" points="189.629,256.417 188.147,257.067 195.387,261.262 195.387,259.752 &#9;&#9;&#9;&#9;&#9;&#9;&#9;&#9;&#9;&#9;&#9;"/>
                      </g>
                      <g>
                        <polygon style="fill:#055B5B;" points="173.055,240.701 180.284,244.891 180.294,252.542 173.055,248.346 &#9;&#9;&#9;&#9;&#9;&#9;&#9;&#9;&#9;&#9;&#9;"/>
                        <polygon style="fill:#2BAFAF;" points="174.537,241.56 174.537,247.696 180.292,251.032 180.294,252.542 &#10;&#9;&#9;&#9;&#9;&#9;&#9;&#9;&#9;&#9;&#9;&#9;&#9;173.055,248.346 173.055,240.701 &#9;&#9;&#9;&#9;&#9;&#9;&#9;&#9;&#9;&#9;&#9;"/>
                        <polygon style="fill:#4BDDD9;" points="174.537,247.696 173.055,248.346 180.294,252.542 180.294,251.032 &#9;&#9;&#9;&#9;&#9;&#9;&#9;&#9;&#9;&#9;&#9;"/>
                      </g>
                      <g>
                        <polygon style="fill:#055B5B;" points="157.962,231.98 165.192,236.17 165.202,243.821 157.962,239.626 &#9;&#9;&#9;&#9;&#9;&#9;&#9;&#9;&#9;&#9;&#9;"/>
                        <polygon style="fill:#2BAFAF;" points="159.444,232.839 159.444,238.976 165.2,242.311 165.202,243.821 157.962,239.626 &#10;&#9;&#9;&#9;&#9;&#9;&#9;&#9;&#9;&#9;&#9;&#9;&#9;157.962,231.98 &#9;&#9;&#9;&#9;&#9;&#9;&#9;&#9;&#9;&#9;&#9;"/>
                        <polygon style="fill:#4BDDD9;" points="159.444,238.976 157.962,239.626 165.202,243.821 165.202,242.311 &#9;&#9;&#9;&#9;&#9;&#9;&#9;&#9;&#9;&#9;&#9;"/>
                      </g>
                      <g>
                        <g>
                          <polygon style="fill:#055B5B;" points="142.87,223.26 150.1,227.449 150.11,235.1 142.87,230.905 &#9;&#9;&#9;&#9;&#9;&#9;&#9;&#9;&#9;&#9;&#9;&#9;"/>
                        </g>
                        <polygon style="fill:#2BAFAF;" points="144.352,224.119 144.352,230.255 150.108,233.59 150.11,235.1 142.87,230.905 &#10;&#9;&#9;&#9;&#9;&#9;&#9;&#9;&#9;&#9;&#9;&#9;&#9;142.87,223.26 &#9;&#9;&#9;&#9;&#9;&#9;&#9;&#9;&#9;&#9;&#9;"/>
                        <polygon style="fill:#4BDDD9;" points="144.352,230.255 142.87,230.905 150.11,235.1 150.11,233.59 &#9;&#9;&#9;&#9;&#9;&#9;&#9;&#9;&#9;&#9;&#9;"/>
                      </g>
                    </g>
                  </g>
                </g>
              </g>
              <g>
                <g>
                  <path style="fill:#DCDDD4;" d="M220.78,55.276l-49.419,28.675l31.937,18.39l49.419-28.675L220.78,55.276z"/>
                  <g>
                    <polygon style="fill:#AEAF9E;" points="252.717,73.667 252.71,82.628 203.291,111.303 203.298,102.342 &#9;&#9;&#9;&#9;&#9;&#9;&#9;&#9;&#9;"/>
                  </g>
                  <g>
                    <polygon style="fill:#C7C9B8;" points="203.298,102.342 203.291,111.303 171.354,92.913 171.361,83.952 &#9;&#9;&#9;&#9;&#9;&#9;&#9;&#9;&#9;"/>
                  </g>
                </g>
                <g>
                  <path style="fill:#DCDDD4;" d="M259.425,80.728l-16.983,9.91l25.012,14.511l16.983-9.91L259.425,80.728z"/>
                  <g>
                    <polygon style="fill:#AEAF9E;" points="284.437,95.239 284.434,99.296 267.451,109.206 267.454,105.148 &#9;&#9;&#9;&#9;&#9;&#9;&#9;&#9;&#9;"/>
                  </g>
                  <g>
                    <polygon style="fill:#C7C9B8;" points="267.454,105.148 267.451,109.206 242.439,94.695 242.442,90.637 &#9;&#9;&#9;&#9;&#9;&#9;&#9;&#9;&#9;"/>
                  </g>
                </g>
                <g>
                  <path style="fill:#50E2C6;" d="M212.698,109.188l7.595,4.348l7.466-4.282l-7.594-4.348L212.698,109.188z"/>
                  <g>
                    <polygon style="fill:#0AA587;" points="212.698,109.188 212.7,117.369 220.295,121.716 220.293,113.535 &#9;&#9;&#9;&#9;&#9;&#9;&#9;&#9;&#9;"/>
                  </g>
                  <g>
                    <polygon style="fill:#1DCCAA;" points="220.293,113.535 220.295,121.716 227.761,117.435 227.759,109.253 &#9;&#9;&#9;&#9;&#9;&#9;&#9;&#9;&#9;"/>
                  </g>
                </g>
                <g>
                  <path style="fill:#50E2C6;" d="M225.661,116.831l7.594,4.348l7.466-4.282l-7.594-4.348L225.661,116.831z"/>
                  <g>
                    <polygon style="fill:#0AA587;" points="225.661,116.831 225.663,125.012 233.258,129.36 233.256,121.178 &#9;&#9;&#9;&#9;&#9;&#9;&#9;&#9;&#9;"/>
                  </g>
                  <g>
                    <polygon style="fill:#1DCCAA;" points="233.256,121.178 233.258,129.36 240.724,125.078 240.722,116.896 &#9;&#9;&#9;&#9;&#9;&#9;&#9;&#9;&#9;"/>
                  </g>
                </g>
                <g>
                  <path style="fill:#50E2C6;" d="M229.355,98.744l7.594,4.348l7.466-4.282l-7.594-4.348L229.355,98.744z"/>
                  <g>
                    <polygon style="fill:#0AA587;" points="229.355,98.744 229.357,106.925 236.951,111.273 236.95,103.091 &#9;&#9;&#9;&#9;&#9;&#9;&#9;&#9;&#9;"/>
                  </g>
                  <g>
                    <polygon style="fill:#1DCCAA;" points="236.95,103.091 236.951,111.273 244.418,106.991 244.416,98.81 &#9;&#9;&#9;&#9;&#9;&#9;&#9;&#9;&#9;"/>
                  </g>
                </g>
                <g>
                  <path style="fill:#50E2C6;" d="M242.903,106.721l7.594,4.348l7.466-4.282l-7.594-4.348L242.903,106.721z"/>
                  <g>
                    <polygon style="fill:#0AA587;" points="242.903,106.721 242.905,114.903 250.499,119.25 250.497,111.069 &#9;&#9;&#9;&#9;&#9;&#9;&#9;&#9;&#9;"/>
                  </g>
                  <g>
                    <polygon style="fill:#1DCCAA;" points="250.497,111.069 250.499,119.25 257.966,114.968 257.964,106.787 &#9;&#9;&#9;&#9;&#9;&#9;&#9;&#9;&#9;"/>
                  </g>
                </g>
              </g>
            </g>
            <g>
              <g>
                <g>
                  <path style="fill:#DCDDD4;" d="M321.629,164.066l-88.668,51.214l-23.521-13.598l-10.677,6.113l34.198,19.786l99.346-57.334&#10;&#9;&#9;&#9;&#9;&#9;&#9;&#9;&#9;&#9;L321.629,164.066z"/>
                  <g>
                    <polygon style="fill:#AEAF9E;" points="332.304,170.248 332.281,271.993 232.94,329.323 232.963,227.578 &#9;&#9;&#9;&#9;&#9;&#9;&#9;&#9;&#9;"/>
                  </g>
                  <g>
                    <polygon style="fill:#C7C9B8;" points="232.963,227.578 232.94,329.323 198.738,309.54 198.76,207.795 &#9;&#9;&#9;&#9;&#9;&#9;&#9;&#9;&#9;"/>
                  </g>
                </g>
                <g>
                  <g>
                    <g>
                      <polygon style="fill:#1DCCAA;" points="225.282,246.469 205.395,234.91 205.375,224.061 225.282,235.627 &#9;&#9;&#9;&#9;&#9;&#9;&#9;&#9;&#9;&#9;"/>
                    </g>
                    <polygon style="fill:#0AA587;" points="210.056,229.467 225.282,238.327 225.282,235.627 205.375,224.061 205.395,234.91 &#10;&#9;&#9;&#9;&#9;&#9;&#9;&#9;&#9;&#9;&#9;210.071,237.613 &#9;&#9;&#9;&#9;&#9;&#9;&#9;&#9;&#9;"/>
                    <polygon style="fill:#AEAF9E;" points="207.858,233.525 207.843,225.496 205.375,224.061 205.395,234.91 225.282,246.469 &#10;&#9;&#9;&#9;&#9;&#9;&#9;&#9;&#9;&#9;&#9;225.282,243.652 &#9;&#9;&#9;&#9;&#9;&#9;&#9;&#9;&#9;"/>
                    <polygon style="fill:#FFFFFF;" points="207.858,233.525 205.395,234.91 225.282,246.469 225.282,243.652 &#9;&#9;&#9;&#9;&#9;&#9;&#9;&#9;&#9;"/>
                  </g>
                  <g>
                    <polygon style="fill:#1DCCAA;" points="225.282,267.884 205.395,256.325 205.375,245.476 225.282,257.042 &#9;&#9;&#9;&#9;&#9;&#9;&#9;&#9;&#9;"/>
                    <polygon style="fill:#0AA587;" points="210.056,250.881 225.282,259.742 225.282,257.042 205.375,245.476 205.395,256.325 &#10;&#9;&#9;&#9;&#9;&#9;&#9;&#9;&#9;&#9;&#9;210.071,259.028 &#9;&#9;&#9;&#9;&#9;&#9;&#9;&#9;&#9;"/>
                    <polygon style="fill:#AEAF9E;" points="207.858,254.94 207.843,246.91 205.375,245.476 205.395,256.325 225.282,267.884 &#10;&#9;&#9;&#9;&#9;&#9;&#9;&#9;&#9;&#9;&#9;225.282,265.067 &#9;&#9;&#9;&#9;&#9;&#9;&#9;&#9;&#9;"/>
                    <polygon style="fill:#FFFFFF;" points="207.858,254.94 205.395,256.325 225.282,267.884 225.282,265.067 &#9;&#9;&#9;&#9;&#9;&#9;&#9;&#9;&#9;"/>
                  </g>
                  <g>
                    <polygon style="fill:#1DCCAA;" points="225.282,289.298 205.395,277.74 205.375,266.891 225.282,278.456 &#9;&#9;&#9;&#9;&#9;&#9;&#9;&#9;&#9;"/>
                    <polygon style="fill:#0AA587;" points="210.056,272.296 225.282,281.156 225.282,278.456 205.375,266.891 205.395,277.74 &#10;&#9;&#9;&#9;&#9;&#9;&#9;&#9;&#9;&#9;&#9;210.071,280.443 &#9;&#9;&#9;&#9;&#9;&#9;&#9;&#9;&#9;"/>
                    <polygon style="fill:#AEAF9E;" points="207.858,276.354 207.843,268.325 205.375,266.891 205.395,277.74 225.282,289.298 &#10;&#9;&#9;&#9;&#9;&#9;&#9;&#9;&#9;&#9;&#9;225.282,286.482 &#9;&#9;&#9;&#9;&#9;&#9;&#9;&#9;&#9;"/>
                    <polygon style="fill:#FFFFFF;" points="207.858,276.354 205.395,277.74 225.282,289.298 225.282,286.482 &#9;&#9;&#9;&#9;&#9;&#9;&#9;&#9;&#9;"/>
                  </g>
                  <g>
                    <g>
                      <polygon style="fill:#1DCCAA;" points="225.282,310.713 205.395,299.154 205.375,288.306 225.282,299.871 &#9;&#9;&#9;&#9;&#9;&#9;&#9;&#9;&#9;&#9;"/>
                    </g>
                    <polygon style="fill:#0AA587;" points="210.056,293.711 225.282,302.571 225.282,299.871 205.375,288.306 205.395,299.154 &#10;&#9;&#9;&#9;&#9;&#9;&#9;&#9;&#9;&#9;&#9;210.071,301.857 &#9;&#9;&#9;&#9;&#9;&#9;&#9;&#9;&#9;"/>
                    <polygon style="fill:#AEAF9E;" points="207.858,297.769 207.843,289.74 205.375,288.306 205.395,299.154 225.282,310.713 &#10;&#9;&#9;&#9;&#9;&#9;&#9;&#9;&#9;&#9;&#9;225.282,307.896 &#9;&#9;&#9;&#9;&#9;&#9;&#9;&#9;&#9;"/>
                    <polygon style="fill:#FFFFFF;" points="207.858,297.769 205.395,299.154 225.282,310.713 225.282,307.896 &#9;&#9;&#9;&#9;&#9;&#9;&#9;&#9;&#9;"/>
                  </g>
                </g>
              </g>
              <path style="fill:#DCDDD4;" d="M332.307,170.248l-72.5,41.825l27.058,16.114l72.5-41.964L332.307,170.248z"/>
              <g>
                <g>
                  <polygon style="fill:#C7C9B8;" points="286.86,228.189 286.86,252.913 286.851,329.605 269.612,319.571 259.794,313.85 &#10;&#9;&#9;&#9;&#9;&#9;&#9;&#9;&#9;&#9;259.803,212.07 &#9;&#9;&#9;&#9;&#9;&#9;&#9;&#9;"/>
                </g>
                <g>
                  <g>
                    <polygon style="fill:#1DCCAA;" points="281.288,233.424 262.825,222.755 262.852,248.702 281.288,259.353 &#9;&#9;&#9;&#9;&#9;&#9;&#9;&#9;&#9;"/>
                    <polygon style="fill:#06725D;" points="281.288,254.311 266.912,245.996 266.89,225.095 262.825,222.755 262.852,248.702 &#10;&#9;&#9;&#9;&#9;&#9;&#9;&#9;&#9;&#9;&#9;281.288,259.353 &#9;&#9;&#9;&#9;&#9;&#9;&#9;&#9;&#9;"/>
                    <g>
                      <polygon style="fill:#DCDDD4;" points="281.288,256.748 265.032,247.349 265.008,224.012 262.825,222.755 &#10;&#9;&#9;&#9;&#9;&#9;&#9;&#9;&#9;&#9;&#9;&#9;262.852,248.702 281.288,259.356 &#9;&#9;&#9;&#9;&#9;&#9;&#9;&#9;&#9;&#9;"/>
                      <polygon style="fill:#8E8E7D;" points="265.033,247.349 262.852,248.702 262.825,222.755 265.008,224.012 &#9;&#9;&#9;&#9;&#9;&#9;&#9;&#9;&#9;&#9;"/>
                    </g>
                  </g>
                  <g>
                    <polygon style="fill:#1DCCAA;" points="281.288,265.602 262.825,254.933 262.852,280.88 281.288,291.531 &#9;&#9;&#9;&#9;&#9;&#9;&#9;&#9;&#9;"/>
                    <polygon style="fill:#06725D;" points="281.288,286.489 266.912,278.174 266.89,257.273 262.825,254.933 262.852,280.88 &#10;&#9;&#9;&#9;&#9;&#9;&#9;&#9;&#9;&#9;&#9;281.288,291.531 &#9;&#9;&#9;&#9;&#9;&#9;&#9;&#9;&#9;"/>
                    <g>
                      <polygon style="fill:#DCDDD4;" points="281.288,288.926 265.032,279.527 265.008,256.19 262.825,254.933 262.852,280.88 &#10;&#9;&#9;&#9;&#9;&#9;&#9;&#9;&#9;&#9;&#9;&#9;281.288,291.534 &#9;&#9;&#9;&#9;&#9;&#9;&#9;&#9;&#9;&#9;"/>
                      <polygon style="fill:#8E8E7D;" points="265.033,279.527 262.852,280.88 262.825,254.933 265.008,256.19 &#9;&#9;&#9;&#9;&#9;&#9;&#9;&#9;&#9;&#9;"/>
                    </g>
                  </g>
                </g>
              </g>
              <g>
                <g>
                  <path style="fill:#DCDDD4;" d="M308.575,177.294l-39.687,22.71l21.44,12.502l39.318-23.078L308.575,177.294z"/>
                  <g>
                    <polygon style="fill:#AEAF9E;" points="329.647,189.428 329.642,195.341 290.324,218.418 290.328,212.506 &#9;&#9;&#9;&#9;&#9;&#9;&#9;&#9;&#9;"/>
                  </g>
                  <g>
                    <polygon style="fill:#C7C9B8;" points="290.328,212.506 290.324,218.418 268.884,205.916 268.888,200.004 &#9;&#9;&#9;&#9;&#9;&#9;&#9;&#9;&#9;"/>
                  </g>
                </g>
                <g>
                  <path style="fill:#50E2C6;" d="M322.916,170.936l-6.802,3.894l6.687,3.835l6.802-3.894L322.916,170.936z"/>
                  <g>
                    <polygon style="fill:#0AA587;" points="329.603,174.771 329.601,178.923 322.799,182.816 322.801,178.665 &#9;&#9;&#9;&#9;&#9;&#9;&#9;&#9;&#9;"/>
                  </g>
                  <g>
                    <polygon style="fill:#1DCCAA;" points="322.801,178.665 322.799,182.816 316.112,178.982 316.114,174.83 &#9;&#9;&#9;&#9;&#9;&#9;&#9;&#9;&#9;"/>
                  </g>
                </g>
                <g>
                  <path style="fill:#50E2C6;" d="M333.024,177.158l-6.767,3.874l6.653,3.815l6.767-3.874L333.024,177.158z"/>
                  <g>
                    <polygon style="fill:#0AA587;" points="339.677,180.973 339.676,184.356 332.909,188.23 332.91,184.847 &#9;&#9;&#9;&#9;&#9;&#9;&#9;&#9;&#9;"/>
                  </g>
                  <g>
                    <polygon style="fill:#1DCCAA;" points="332.91,184.847 332.909,188.23 326.256,184.414 326.257,181.032 &#9;&#9;&#9;&#9;&#9;&#9;&#9;&#9;&#9;"/>
                  </g>
                </g>
              </g>
              <g>
                <g>
                  <polygon style="fill:#AEAF9E;" points="359.361,186.227 359.352,287.642 351.129,292.402 286.851,329.605 286.86,228.189 &#10;&#9;&#9;&#9;&#9;&#9;&#9;&#9;&#9;&#9;&#9;&#9;&#9;&#9;&#9;&#9;&#9;&#9;"/>
                </g>
                <g>
                  <g>
                    <polygon style="fill:#06725D;" points="337.639,280.886 336.286,281.662 334.22,282.853 325.911,287.635 324.07,288.699 &#10;&#9;&#9;&#9;&#9;&#9;&#9;&#9;&#9;&#9;&#9;322.527,289.583 320.461,290.774 312.333,295.457 310.501,296.503 308.769,297.505 306.703,298.686 297.149,304.19 &#10;&#9;&#9;&#9;&#9;&#9;&#9;&#9;&#9;&#9;&#9;297.149,323.644 351.129,292.402 353.146,291.235 353.166,271.946 339.48,279.822 &#9;&#9;&#9;&#9;&#9;&#9;&#9;&#9;&#9;"/>
                    <polygon style="fill:#DCDDD4;" points="350.456,273.505 350.439,289.806 348.423,290.974 297.149,320.649 297.149,323.644 &#10;&#9;&#9;&#9;&#9;&#9;&#9;&#9;&#9;&#9;&#9;351.129,292.402 353.146,291.235 353.166,271.946 &#9;&#9;&#9;&#9;&#9;&#9;&#9;&#9;&#9;"/>
                  </g>
                  <g>
                    <g>
                      <g>
                        <polygon style="fill:#1DCCAA;" points="353.166,201.575 353.139,227.522 339.48,235.38 337.639,236.444 336.286,237.22 &#10;&#9;&#9;&#9;&#9;&#9;&#9;&#9;&#9;&#9;&#9;&#9;&#9;334.22,238.411 325.911,243.193 324.07,244.257 322.527,245.142 320.461,246.333 312.333,251.015 310.501,252.061 &#10;&#9;&#9;&#9;&#9;&#9;&#9;&#9;&#9;&#9;&#9;&#9;&#9;308.769,253.063 306.703,254.254 297.149,259.757 297.149,233.819 306.703,228.316 308.769,227.134 310.501,226.132 &#10;&#9;&#9;&#9;&#9;&#9;&#9;&#9;&#9;&#9;&#9;&#9;&#9;312.333,225.086 320.461,220.404 322.527,219.213 324.07,218.329 325.911,217.264 334.22,212.482 336.286,211.291 &#10;&#9;&#9;&#9;&#9;&#9;&#9;&#9;&#9;&#9;&#9;&#9;&#9;337.639,210.516 339.48,209.451 &#9;&#9;&#9;&#9;&#9;&#9;&#9;&#9;&#9;&#9;&#9;"/>
                        <polygon style="fill:#06725D;" points="349.101,203.914 349.079,224.815 335.42,232.673 333.579,233.738 &#10;&#9;&#9;&#9;&#9;&#9;&#9;&#9;&#9;&#9;&#9;&#9;&#9;332.226,234.514 330.16,235.705 321.851,240.486 320.01,241.551 318.468,242.435 316.402,243.626 308.273,248.308 &#10;&#9;&#9;&#9;&#9;&#9;&#9;&#9;&#9;&#9;&#9;&#9;&#9;306.441,249.355 304.709,250.356 302.643,251.547 297.149,254.712 297.149,259.757 306.703,254.254 308.769,253.063 &#10;&#9;&#9;&#9;&#9;&#9;&#9;&#9;&#9;&#9;&#9;&#9;&#9;310.501,252.061 312.333,251.015 320.461,246.333 322.527,245.142 324.07,244.257 325.911,243.193 334.22,238.411 &#10;&#9;&#9;&#9;&#9;&#9;&#9;&#9;&#9;&#9;&#9;&#9;&#9;336.286,237.22 337.639,236.444 339.48,235.38 353.139,227.522 353.166,201.575 &#9;&#9;&#9;&#9;&#9;&#9;&#9;&#9;&#9;&#9;&#9;"/>
                        <g>
                          <polygon style="fill:#06725D;" points="312.333,251.015 312.333,225.086 310.501,226.132 310.501,252.061 &#9;&#9;&#9;&#9;&#9;&#9;&#9;&#9;&#9;&#9;&#9;&#9;&#10;&#9;&#9;&#9;&#9;&#9;&#9;&#9;&#9;&#9;&#9;&#9;&#9;&#9;"/>
                          <polygon style="fill:#06725D;" points="325.911,217.264 325.911,243.193 324.07,244.257 324.07,218.329 &#9;&#9;&#9;&#9;&#9;&#9;&#9;&#9;&#9;&#9;&#9;&#9;"/>
                          <polygon style="fill:#06725D;" points="339.48,209.451 339.48,235.38 337.639,236.444 337.639,210.516 &#9;&#9;&#9;&#9;&#9;&#9;&#9;&#9;&#9;&#9;&#9;&#9;"/>
                        </g>
                        <g>
                          <polygon style="fill:#DCDDD4;" points="350.983,202.831 350.958,226.169 334.106,235.867 332.039,237.058 &#10;&#9;&#9;&#9;&#9;&#9;&#9;&#9;&#9;&#9;&#9;&#9;&#9;&#9;320.347,243.788 318.281,244.979 306.589,251.71 304.523,252.9 297.149,257.148 297.149,259.757 306.703,254.254 &#10;&#9;&#9;&#9;&#9;&#9;&#9;&#9;&#9;&#9;&#9;&#9;&#9;&#9;308.769,253.063 320.461,246.333 322.527,245.142 334.22,238.411 336.286,237.22 353.139,227.522 353.166,201.575 &#10;&#9;&#9;&#9;&#9;&#9;&#9;&#9;&#9;&#9;&#9;&#9;&#9;&#9;&#9;&#9;&#9;&#9;&#9;&#9;&#9;&#9;&#9;&#9;&#9;&#9;"/>
                          <polygon style="fill:#8E8E7D;" points="350.958,226.169 353.139,227.522 353.166,201.575 350.983,202.831 &#9;&#9;&#9;&#9;&#9;&#9;&#9;&#9;&#9;&#9;&#9;&#9;&#10;&#9;&#9;&#9;&#9;&#9;&#9;&#9;&#9;&#9;&#9;&#9;&#9;&#9;"/>
                        </g>
                      </g>
                    </g>
                    <g>
                      <g>
                        <polygon style="fill:#1DCCAA;" points="353.166,231.798 353.139,257.745 339.48,265.603 337.639,266.668 &#10;&#9;&#9;&#9;&#9;&#9;&#9;&#9;&#9;&#9;&#9;&#9;&#9;336.286,267.444 334.22,268.635 325.911,273.416 324.07,274.481 322.527,275.365 320.461,276.556 312.333,281.238 &#10;&#9;&#9;&#9;&#9;&#9;&#9;&#9;&#9;&#9;&#9;&#9;&#9;310.501,282.285 308.769,283.286 306.703,284.477 297.149,289.98 297.149,264.043 306.703,258.539 308.769,257.357 &#10;&#9;&#9;&#9;&#9;&#9;&#9;&#9;&#9;&#9;&#9;&#9;&#9;310.501,256.356 312.333,255.309 320.461,250.627 322.527,249.436 324.07,248.552 325.911,247.487 334.22,242.706 &#10;&#9;&#9;&#9;&#9;&#9;&#9;&#9;&#9;&#9;&#9;&#9;&#9;336.286,241.515 337.639,240.739 339.48,239.674 &#9;&#9;&#9;&#9;&#9;&#9;&#9;&#9;&#9;&#9;&#9;"/>
                        <polygon style="fill:#06725D;" points="349.101,234.137 349.079,255.039 335.42,262.897 333.579,263.961 &#10;&#9;&#9;&#9;&#9;&#9;&#9;&#9;&#9;&#9;&#9;&#9;&#9;332.226,264.737 330.16,265.928 321.851,270.71 320.01,271.774 318.468,272.658 316.402,273.849 308.273,278.532 &#10;&#9;&#9;&#9;&#9;&#9;&#9;&#9;&#9;&#9;&#9;&#9;&#9;306.441,279.578 304.709,280.58 302.643,281.771 297.149,284.935 297.149,289.98 306.703,284.477 308.769,283.286 &#10;&#9;&#9;&#9;&#9;&#9;&#9;&#9;&#9;&#9;&#9;&#9;&#9;310.501,282.285 312.333,281.238 320.461,276.556 322.527,275.365 324.07,274.481 325.911,273.416 334.22,268.635 &#10;&#9;&#9;&#9;&#9;&#9;&#9;&#9;&#9;&#9;&#9;&#9;&#9;336.286,267.444 337.639,266.668 339.48,265.603 353.139,257.745 353.166,231.798 &#9;&#9;&#9;&#9;&#9;&#9;&#9;&#9;&#9;&#9;&#9;"/>
                        <g>
                          <polygon style="fill:#06725D;" points="312.333,281.238 312.333,255.309 310.501,256.356 310.501,282.285 &#9;&#9;&#9;&#9;&#9;&#9;&#9;&#9;&#9;&#9;&#9;&#9;&#10;&#9;&#9;&#9;&#9;&#9;&#9;&#9;&#9;&#9;&#9;&#9;&#9;&#9;"/>
                          <polygon style="fill:#06725D;" points="325.911,247.487 325.911,273.416 324.07,274.481 324.07,248.552 &#9;&#9;&#9;&#9;&#9;&#9;&#9;&#9;&#9;&#9;&#9;&#9;"/>
                          <polygon style="fill:#06725D;" points="339.48,239.674 339.48,265.603 337.639,266.668 337.639,240.739 &#9;&#9;&#9;&#9;&#9;&#9;&#9;&#9;&#9;&#9;&#9;&#9;"/>
                        </g>
                        <g>
                          <polygon style="fill:#DCDDD4;" points="350.983,233.055 350.958,256.392 334.106,266.09 332.039,267.281 &#10;&#9;&#9;&#9;&#9;&#9;&#9;&#9;&#9;&#9;&#9;&#9;&#9;&#9;320.347,274.012 318.281,275.203 306.589,281.933 304.523,283.124 297.149,287.371 297.149,289.98 306.703,284.477 &#10;&#9;&#9;&#9;&#9;&#9;&#9;&#9;&#9;&#9;&#9;&#9;&#9;&#9;308.769,283.286 320.461,276.556 322.527,275.365 334.22,268.635 336.286,267.444 353.139,257.745 353.166,231.798 &#10;&#9;&#9;&#9;&#9;&#9;&#9;&#9;&#9;&#9;&#9;&#9;&#9;&#9;&#9;&#9;&#9;&#9;&#9;&#9;&#9;&#9;&#9;&#9;&#9;&#9;"/>
                          <polygon style="fill:#8E8E7D;" points="350.958,256.392 353.139,257.745 353.166,231.798 350.983,233.055 &#9;&#9;&#9;&#9;&#9;&#9;&#9;&#9;&#9;&#9;&#9;&#9;&#10;&#9;&#9;&#9;&#9;&#9;&#9;&#9;&#9;&#9;&#9;&#9;&#9;&#9;"/>
                        </g>
                      </g>
                    </g>
                  </g>
                </g>
              </g>
            </g>
          </g>
        </g>
        <g>
          <g>
            <g>
              <g>
                <g>
                  <g>
                    <polygon style="fill:#BF5813;" points="238.531,358.458 235.957,359.949 233.726,358.648 236.299,357.157 &#9;&#9;&#9;&#9;&#9;&#9;&#9;&#9;&#9;"/>
                  </g>
                  <g>
                    <polygon style="fill:#C1611A;" points="238.531,358.458 238.537,371.19 235.963,372.68 235.957,359.949 &#9;&#9;&#9;&#9;&#9;&#9;&#9;&#9;&#9;"/>
                  </g>
                  <g>
                    <polygon style="fill:#D38B2D;" points="235.963,372.68 233.732,371.379 233.726,358.648 235.957,359.949 &#9;&#9;&#9;&#9;&#9;&#9;&#9;&#9;&#9;"/>
                  </g>
                </g>
                <g>
                  <polygon style="fill:#B1C923;" points="228.229,362.016 236.767,366.372 236.767,340.472 &#9;&#9;&#9;&#9;&#9;&#9;&#9;&#9;"/>
                  <polygon style="fill:#77890A;" points="236.767,340.472 236.767,366.372 245.305,362.016 &#9;&#9;&#9;&#9;&#9;&#9;&#9;&#9;"/>
                </g>
              </g>
            </g>
          </g>
          <g>
            <g>
              <g>
                <g>
                  <g>
                    <polygon style="fill:#BF5813;" points="281.982,349.427 279.409,350.917 277.177,349.616 279.751,348.126 &#9;&#9;&#9;&#9;&#9;&#9;&#9;&#9;&#9;"/>
                  </g>
                  <g>
                    <polygon style="fill:#C1611A;" points="281.982,349.427 281.988,362.158 279.415,363.649 279.409,350.917 &#9;&#9;&#9;&#9;&#9;&#9;&#9;&#9;&#9;"/>
                  </g>
                  <g>
                    <polygon style="fill:#D38B2D;" points="279.415,363.649 277.183,362.348 277.177,349.617 279.409,350.917 &#9;&#9;&#9;&#9;&#9;&#9;&#9;&#9;&#9;"/>
                  </g>
                </g>
                <g>
                  <polygon style="fill:#B1C923;" points="271.681,352.984 280.219,357.341 280.219,331.441 &#9;&#9;&#9;&#9;&#9;&#9;&#9;&#9;"/>
                  <polygon style="fill:#77890A;" points="280.219,331.441 280.219,357.341 288.757,352.984 &#9;&#9;&#9;&#9;&#9;&#9;&#9;&#9;"/>
                </g>
              </g>
            </g>
          </g>
          <g>
            <g>
              <g>
                <g>
                  <g>
                    <polygon style="fill:#BF5813;" points="312.488,331.79 309.914,333.281 307.683,331.98 310.256,330.489 &#9;&#9;&#9;&#9;&#9;&#9;&#9;&#9;&#9;"/>
                  </g>
                  <g>
                    <polygon style="fill:#C1611A;" points="312.488,331.79 312.494,344.522 309.92,346.012 309.914,333.281 &#9;&#9;&#9;&#9;&#9;&#9;&#9;&#9;&#9;"/>
                  </g>
                  <g>
                    <polygon style="fill:#D38B2D;" points="309.92,346.012 307.689,344.712 307.683,331.98 309.914,333.281 &#9;&#9;&#9;&#9;&#9;&#9;&#9;&#9;&#9;"/>
                  </g>
                </g>
                <g>
                  <polygon style="fill:#B1C923;" points="302.186,335.348 310.724,339.704 310.724,313.804 &#9;&#9;&#9;&#9;&#9;&#9;&#9;&#9;"/>
                  <polygon style="fill:#77890A;" points="310.724,313.804 310.724,339.704 319.263,335.348 &#9;&#9;&#9;&#9;&#9;&#9;&#9;&#9;"/>
                </g>
              </g>
            </g>
          </g>
          <g>
            <g>
              <g>
                <g>
                  <g>
                    <polygon style="fill:#BF5813;" points="368.498,299.657 365.925,301.147 363.693,299.847 366.267,298.356 &#9;&#9;&#9;&#9;&#9;&#9;&#9;&#9;&#9;"/>
                  </g>
                  <g>
                    <polygon style="fill:#C1611A;" points="368.498,299.657 368.504,312.388 365.931,313.879 365.925,301.147 &#9;&#9;&#9;&#9;&#9;&#9;&#9;&#9;&#9;"/>
                  </g>
                  <g>
                    <polygon style="fill:#D38B2D;" points="365.931,313.879 363.699,312.578 363.693,299.847 365.925,301.147 &#9;&#9;&#9;&#9;&#9;&#9;&#9;&#9;&#9;"/>
                  </g>
                </g>
                <g>
                  <polygon style="fill:#B1C923;" points="358.197,303.215 366.735,307.571 366.735,281.671 &#9;&#9;&#9;&#9;&#9;&#9;&#9;&#9;"/>
                  <polygon style="fill:#77890A;" points="366.735,281.671 366.735,307.571 375.273,303.215 &#9;&#9;&#9;&#9;&#9;&#9;&#9;&#9;"/>
                </g>
              </g>
            </g>
          </g>
          <g>
            <g>
              <g>
                <g>
                  <g>
                    <polygon style="fill:#BF5813;" points="399.004,282.02 396.43,283.511 394.199,282.21 396.772,280.72 &#9;&#9;&#9;&#9;&#9;&#9;&#9;&#9;&#9;"/>
                  </g>
                  <g>
                    <polygon style="fill:#C1611A;" points="399.004,282.02 399.01,294.752 396.436,296.242 396.43,283.511 &#9;&#9;&#9;&#9;&#9;&#9;&#9;&#9;&#9;"/>
                  </g>
                  <g>
                    <polygon style="fill:#D38B2D;" points="396.436,296.242 394.205,294.942 394.199,282.21 396.43,283.511 &#9;&#9;&#9;&#9;&#9;&#9;&#9;&#9;&#9;"/>
                  </g>
                </g>
                <g>
                  <polygon style="fill:#B1C923;" points="388.702,285.578 397.24,289.934 397.24,264.034 &#9;&#9;&#9;&#9;&#9;&#9;&#9;&#9;"/>
                  <polygon style="fill:#77890A;" points="397.24,264.034 397.24,289.934 405.778,285.578 &#9;&#9;&#9;&#9;&#9;&#9;&#9;&#9;"/>
                </g>
              </g>
            </g>
          </g>
          <g>
            <g>
              <g>
                <g>
                  <g>
                    <polygon style="fill:#BF5813;" points="200.476,336.888 197.902,338.379 195.671,337.078 198.244,335.588 &#9;&#9;&#9;&#9;&#9;&#9;&#9;&#9;&#9;"/>
                  </g>
                  <g>
                    <polygon style="fill:#C1611A;" points="200.476,336.888 200.482,349.62 197.908,351.111 197.902,338.379 &#9;&#9;&#9;&#9;&#9;&#9;&#9;&#9;&#9;"/>
                  </g>
                  <g>
                    <polygon style="fill:#D38B2D;" points="197.908,351.111 195.677,349.81 195.671,337.078 197.902,338.379 &#9;&#9;&#9;&#9;&#9;&#9;&#9;&#9;&#9;"/>
                  </g>
                </g>
                <g>
                  <polygon style="fill:#B1C923;" points="190.174,340.446 198.712,344.802 198.712,318.902 &#9;&#9;&#9;&#9;&#9;&#9;&#9;&#9;"/>
                  <polygon style="fill:#77890A;" points="198.712,318.902 198.712,344.802 207.25,340.446 &#9;&#9;&#9;&#9;&#9;&#9;&#9;&#9;"/>
                </g>
              </g>
            </g>
          </g>
          <g>
            <g>
              <g>
                <g>
                  <g>
                    <polygon style="fill:#BF5813;" points="168.048,317.468 165.475,318.959 163.243,317.658 165.816,316.167 &#9;&#9;&#9;&#9;&#9;&#9;&#9;&#9;&#9;"/>
                  </g>
                  <g>
                    <polygon style="fill:#C1611A;" points="168.048,317.468 168.054,330.199 165.481,331.69 165.475,318.959 &#9;&#9;&#9;&#9;&#9;&#9;&#9;&#9;&#9;"/>
                  </g>
                  <g>
                    <polygon style="fill:#D38B2D;" points="165.481,331.69 163.249,330.389 163.243,317.658 165.475,318.959 &#9;&#9;&#9;&#9;&#9;&#9;&#9;&#9;&#9;"/>
                  </g>
                </g>
                <g>
                  <polygon style="fill:#B1C923;" points="157.746,321.026 166.285,325.382 166.285,299.482 &#9;&#9;&#9;&#9;&#9;&#9;&#9;&#9;"/>
                  <polygon style="fill:#77890A;" points="166.285,299.482 166.285,325.382 174.823,321.026 &#9;&#9;&#9;&#9;&#9;&#9;&#9;&#9;"/>
                </g>
              </g>
            </g>
          </g>
          <g>
            <g>
              <g>
                <g>
                  <g>
                    <g>
                      <polygon style="fill:#BF5813;" points="114.524,285.345 111.951,286.836 109.719,285.535 112.293,284.045 &#9;&#9;&#9;&#9;&#9;&#9;&#9;&#9;&#9;&#9;"/>
                    </g>
                    <g>
                      <polygon style="fill:#C1611A;" points="114.524,285.345 114.53,298.077 111.957,299.568 111.951,286.836 &#9;&#9;&#9;&#9;&#9;&#9;&#9;&#9;&#9;&#9;"/>
                    </g>
                    <g>
                      <polygon style="fill:#D38B2D;" points="111.957,299.568 109.725,298.267 109.719,285.535 111.951,286.836 &#9;&#9;&#9;&#9;&#9;&#9;&#9;&#9;&#9;&#9;"/>
                    </g>
                  </g>
                  <g>
                    <polygon style="fill:#B1C923;" points="104.222,288.903 112.761,293.259 112.761,267.359 &#9;&#9;&#9;&#9;&#9;&#9;&#9;&#9;&#9;"/>
                    <polygon style="fill:#77890A;" points="112.761,267.359 112.761,293.259 121.299,288.903 &#9;&#9;&#9;&#9;&#9;&#9;&#9;&#9;&#9;"/>
                  </g>
                </g>
              </g>
            </g>
            <g>
              <g>
                <g>
                  <g>
                    <g>
                      <polygon style="fill:#BF5813;" points="93.892,273.21 91.318,274.701 89.087,273.4 91.66,271.909 &#9;&#9;&#9;&#9;&#9;&#9;&#9;&#9;&#9;&#9;"/>
                    </g>
                    <g>
                      <polygon style="fill:#C1611A;" points="93.892,273.21 93.897,285.941 91.324,287.432 91.318,274.701 &#9;&#9;&#9;&#9;&#9;&#9;&#9;&#9;&#9;&#9;"/>
                    </g>
                    <g>
                      <polygon style="fill:#D38B2D;" points="91.324,287.432 89.092,286.132 89.087,273.4 91.318,274.701 &#9;&#9;&#9;&#9;&#9;&#9;&#9;&#9;&#9;&#9;"/>
                    </g>
                  </g>
                  <g>
                    <polygon style="fill:#B1C923;" points="83.59,276.768 92.128,281.124 92.128,255.224 &#9;&#9;&#9;&#9;&#9;&#9;&#9;&#9;&#9;"/>
                    <polygon style="fill:#77890A;" points="92.128,255.224 92.128,281.124 100.666,276.768 &#9;&#9;&#9;&#9;&#9;&#9;&#9;&#9;&#9;"/>
                  </g>
                </g>
              </g>
            </g>
          </g>
          <g>
            <g>
              <g>
                <g>
                  <g>
                    <g>
                      <polygon style="fill:#BF5813;" points="391.888,251.441 389.314,252.932 387.082,251.631 389.656,250.14 &#9;&#9;&#9;&#9;&#9;&#9;&#9;&#9;&#9;&#9;"/>
                    </g>
                    <g>
                      <polygon style="fill:#C1611A;" points="391.887,251.441 391.894,264.172 389.32,265.663 389.314,252.932 &#9;&#9;&#9;&#9;&#9;&#9;&#9;&#9;&#9;&#9;"/>
                    </g>
                    <g>
                      <polygon style="fill:#D38B2D;" points="389.32,265.663 387.089,264.362 387.082,251.631 389.314,252.932 &#9;&#9;&#9;&#9;&#9;&#9;&#9;&#9;&#9;&#9;"/>
                    </g>
                  </g>
                  <g>
                    <polygon style="fill:#B1C923;" points="381.586,254.999 390.124,259.355 390.124,233.455 &#9;&#9;&#9;&#9;&#9;&#9;&#9;&#9;&#9;"/>
                    <polygon style="fill:#77890A;" points="390.124,233.455 390.124,259.355 398.662,254.999 &#9;&#9;&#9;&#9;&#9;&#9;&#9;&#9;&#9;"/>
                  </g>
                </g>
              </g>
            </g>
            <g>
              <g>
                <g>
                  <g>
                    <g>
                      <polygon style="fill:#BF5813;" points="371.255,239.305 368.681,240.796 366.45,239.495 369.023,238.005 &#9;&#9;&#9;&#9;&#9;&#9;&#9;&#9;&#9;&#9;"/>
                    </g>
                    <g>
                      <polygon style="fill:#C1611A;" points="371.255,239.305 371.261,252.037 368.688,253.528 368.681,240.796 &#9;&#9;&#9;&#9;&#9;&#9;&#9;&#9;&#9;&#9;"/>
                    </g>
                    <g>
                      <polygon style="fill:#D38B2D;" points="368.688,253.528 366.456,252.227 366.45,239.495 368.681,240.796 &#9;&#9;&#9;&#9;&#9;&#9;&#9;&#9;&#9;&#9;"/>
                    </g>
                  </g>
                  <g>
                    <polygon style="fill:#B1C923;" points="360.953,242.863 369.491,247.219 369.491,221.32 &#9;&#9;&#9;&#9;&#9;&#9;&#9;&#9;&#9;"/>
                    <polygon style="fill:#77890A;" points="369.491,221.32 369.491,247.219 378.03,242.863 &#9;&#9;&#9;&#9;&#9;&#9;&#9;&#9;&#9;"/>
                  </g>
                </g>
              </g>
            </g>
          </g>
        </g>
      </g>
      <polygon style="fill:#DCDDD4;" points="148.14,275.805 188.156,297.986 188.156,303.71 144.012,278.494 &#9;&#9;"/>
    </g>
  </g>
</svg>